<!-- Generated by IcoMoon.io -->
<svg version="1.1" xmlns="http://www.w3.org/2000/svg" width="32" height="32" viewBox="0 0 32 32">
<title>arrow-left-red</title>
<path fill="#ef6c69" d="M22.065 1.311c0.453-0.475 1.289-0.464 1.731 0.020 0.441 0.438 0.446 1.218 0.010 1.66-4.216 4.327-8.436 8.652-12.652 12.979 4.207 4.315 8.414 8.629 12.621 12.944 0.252 0.249 0.387 0.611 0.353 0.964-0.036 0.47-0.375 0.896-0.823 1.039-0.427 0.146-0.929 0.028-1.245-0.295-4.61-4.597-9.221-9.194-13.831-13.792-0.479-0.445-0.478-1.277 0.002-1.722 4.611-4.599 9.222-9.199 13.834-13.797z"></path>
</svg>
