<!-- Generated by IcoMoon.io -->
<svg version="1.1" xmlns="http://www.w3.org/2000/svg" width="32" height="32" viewBox="0 0 32 32">
<title>arrow-left-black</title>
<path d="M22.066 1.31c0.301-0.304 0.768-0.426 1.179-0.307 0.431 0.114 0.779 0.486 0.863 0.924 0.084 0.395-0.051 0.824-0.341 1.104-4.205 4.311-8.408 8.626-12.614 12.936 4.204 4.317 8.413 8.629 12.619 12.944 0.285 0.28 0.418 0.704 0.336 1.096-0.082 0.438-0.431 0.811-0.861 0.926-0.413 0.119-0.882-0.003-1.184-0.308-4.612-4.598-9.224-9.197-13.835-13.796-0.48-0.446-0.478-1.279 0.004-1.724 4.611-4.599 9.222-9.199 13.834-13.796z"></path>
</svg>
