<!-- Generated by IcoMoon.io -->
<svg version="1.1" xmlns="http://www.w3.org/2000/svg" width="32" height="32" viewBox="0 0 32 32">
<title>arrow-right-red</title>
<path fill="#ef6c69" d="M8.916 0.969c0.385-0.056 0.787 0.091 1.052 0.373 4.609 4.6 9.223 9.196 13.831 13.797 0.453 0.449 0.438 1.257-0.029 1.692-4.59 4.579-9.182 9.155-13.771 13.734-0.193 0.208-0.45 0.359-0.733 0.4-0.473 0.079-0.979-0.155-1.223-0.569-0.281-0.446-0.215-1.073 0.154-1.451 4.215-4.328 8.436-8.649 12.65-12.978-4.209-4.313-8.414-8.63-12.623-12.945-0.332-0.324-0.448-0.847-0.279-1.28 0.149-0.411 0.538-0.718 0.971-0.773z"></path>
</svg>
