<!-- Generated by IcoMoon.io -->
<svg version="1.1" xmlns="http://www.w3.org/2000/svg" width="32" height="32" viewBox="0 0 32 32">
<title>arrow-left-white</title>
<path fill="#fff" d="M22.061 1.314c0.288-0.292 0.729-0.42 1.128-0.326 0.425 0.091 0.782 0.43 0.898 0.849 0.122 0.414-0.004 0.886-0.312 1.188-4.207 4.315-8.414 8.629-12.621 12.945 4.144 4.251 8.29 8.502 12.435 12.754 0.166 0.169 0.348 0.336 0.44 0.56 0.199 0.434 0.103 0.982-0.233 1.323-0.442 0.483-1.277 0.494-1.73 0.021-4.613-4.599-9.225-9.198-13.837-13.797-0.48-0.445-0.479-1.278 0.001-1.723 4.609-4.598 9.22-9.196 13.83-13.794z"></path>
</svg>
