<!-- Generated by IcoMoon.io -->
<svg version="1.1" xmlns="http://www.w3.org/2000/svg" width="32" height="32" viewBox="0 0 32 32">
<title>arrow-right-black</title>
<path d="M7.959 1.706c0.183-0.461 0.674-0.772 1.169-0.746 0.301 0.011 0.595 0.139 0.807 0.352 4.56 4.546 9.118 9.094 13.678 13.64 0.171 0.165 0.345 0.339 0.431 0.566 0.186 0.441 0.071 0.985-0.275 1.315-4.611 4.599-9.223 9.197-13.834 13.795-0.259 0.26-0.64 0.389-1.004 0.343-0.443-0.049-0.843-0.365-0.991-0.786-0.157-0.418-0.054-0.919 0.257-1.24 4.213-4.329 8.439-8.646 12.648-12.98-4.208-4.308-8.409-8.624-12.614-12.934-0.348-0.334-0.462-0.881-0.271-1.324z"></path>
</svg>
