<!-- Generated by IcoMoon.io -->
<svg version="1.1" xmlns="http://www.w3.org/2000/svg" width="32" height="32" viewBox="0 0 32 32">
<title>arrow-right-white</title>
<path fill="#fff" d="M8.918 0.969c0.37-0.052 0.759 0.079 1.022 0.346 4.619 4.607 9.241 9.213 13.858 13.822 0.469 0.462 0.435 1.297-0.060 1.727-4.601 4.587-9.2 9.174-13.8 13.761-0.286 0.289-0.723 0.416-1.118 0.326-0.416-0.086-0.771-0.409-0.895-0.815-0.139-0.422-0.016-0.913 0.303-1.223 4.206-4.315 8.414-8.628 12.619-12.944-4.206-4.313-8.411-8.627-12.617-12.941-0.335-0.323-0.455-0.846-0.286-1.281 0.148-0.413 0.539-0.723 0.974-0.777z"></path>
</svg>
