<!-- Generated by IcoMoon.io -->
<svg version="1.1" xmlns="http://www.w3.org/2000/svg" width="32" height="32" viewBox="0 0 32 32">
<title>close-white</title>
<path fill="#fff" d="M25.467 4.894c0.009-0.019 0.026-0.059 0.035-0.078l0.025 0.089c0.223-0.037 0.431 0.055 0.634 0.134 0.047 0.031 0.096 0.062 0.144 0.092 0.754 0.449 0.921 1.596 0.323 2.239-2.851 2.856-5.709 5.705-8.558 8.563 2.758 2.763 5.521 5.521 8.281 8.283 0.236 0.226 0.474 0.471 0.568 0.793 0.218 0.629-0.044 1.386-0.617 1.731-0.017 0.014-0.052 0.043-0.070 0.058-0.119 0.069-0.249 0.122-0.389 0.129l0.002 0.039c-0.226 0.011-0.451 0.015-0.676 0.003l-0.004-0.045c-0.259-0.007-0.489-0.168-0.681-0.33-2.839-2.846-5.691-5.679-8.523-8.531-0.126 0.087-0.226 0.204-0.334 0.311-2.751 2.752-5.503 5.503-8.254 8.255-0.090 0.088-0.208 0.137-0.31 0.21-0.019 0.003-0.056 0.008-0.074 0.010-0.199 0.141-0.456 0.083-0.664 0.182l0.021-0.061c-0.107 0.001-0.215-0.004-0.322-0.006l-0.007-0.042c-0.748-0.152-1.253-0.984-1.091-1.723 0.056-0.328 0.241-0.62 0.477-0.848 2.809-2.803 5.607-5.616 8.421-8.413-2.844-2.852-5.697-5.696-8.543-8.547-0.442-0.471-0.499-1.225-0.173-1.775 0.154-0.253 0.391-0.431 0.633-0.589 0.024 0.004 0.072 0.011 0.096 0.014l0.005-0.060c0.076 0.001 0.146-0.017 0.211-0.053 0.201-0.046 0.408-0.024 0.612-0.030l0.017 0.081c0.015-0.021 0.046-0.062 0.061-0.082 0.145 0.094 0.316 0.136 0.469 0.214l0.006 0.031c0.141 0.064 0.236 0.191 0.348 0.292 2.791 2.791 5.582 5.582 8.374 8.373 1.734-1.721 3.456-3.454 5.186-5.18 1.163-1.153 2.306-2.327 3.482-3.466l0.032-0.004c0.238-0.173 0.53-0.276 0.826-0.261z"></path>
</svg>
