<!-- Generated by IcoMoon.io -->
<svg version="1.1" xmlns="http://www.w3.org/2000/svg" width="32" height="32" viewBox="0 0 32 32">
<title>close-black</title>
<path d="M5.85 4.992c0.421-0.154 0.917-0.143 1.304 0.098 0.187 0.098 0.326 0.26 0.476 0.404 2.771 2.771 5.541 5.541 8.311 8.311 2.839-2.824 5.662-5.663 8.497-8.49 0.501-0.511 1.373-0.571 1.941-0.136 0.57 0.403 0.782 1.228 0.469 1.854-0.112 0.267-0.34 0.452-0.537 0.654-2.747 2.747-5.494 5.496-8.243 8.242 2.827 2.841 5.668 5.667 8.498 8.505 0.279 0.278 0.438 0.673 0.423 1.068 0.011 0.56-0.35 1.082-0.839 1.334-0.123 0.084-0.276 0.089-0.418 0.071 0.071 0.015 0.143 0.031 0.216 0.047-0.273 0.004-0.552 0.058-0.821-0.014-0.225-0.064-0.442-0.168-0.617-0.324-2.858-2.851-5.706-5.713-8.567-8.559-2.806 2.803-5.609 5.609-8.414 8.413-0.311 0.363-0.808 0.553-1.281 0.504-0.577-0.049-1.099-0.476-1.273-1.026-0.141-0.413-0.084-0.889 0.15-1.258 0.146-0.241 0.369-0.421 0.561-0.622 2.713-2.71 5.419-5.427 8.137-8.132-2.842-2.849-5.692-5.691-8.535-8.539-0.314-0.338-0.453-0.828-0.363-1.28 0.082-0.503 0.456-0.935 0.924-1.123z"></path>
</svg>
