<!-- Generated by IcoMoon.io -->
<svg version="1.1" xmlns="http://www.w3.org/2000/svg" width="32" height="32" viewBox="0 0 32 32">
<title>close-red</title>
<path fill="#ef6c69" d="M25.459 4.893c0.012-0.018 0.035-0.051 0.047-0.069l0.021 0.082c0.223-0.041 0.43 0.053 0.632 0.131 0.49 0.253 0.841 0.777 0.832 1.335 0.013 0.377-0.134 0.757-0.394 1.029-2.843 2.841-5.684 5.686-8.528 8.526 2.734 2.746 5.479 5.481 8.217 8.222 0.198 0.202 0.421 0.39 0.547 0.649 0.162 0.308 0.191 0.671 0.128 1.010-0.13 0.552-0.586 1.027-1.148 1.14-0.211 0.047-0.428 0.020-0.642 0.017l-0.009-0.043c-0.26-0.021-0.496-0.166-0.685-0.339-2.823-2.824-5.648-5.647-8.471-8.472-0.018-0.011-0.052-0.033-0.069-0.044-2.874 2.852-5.726 5.727-8.595 8.584-0.365 0.286-0.848 0.382-1.301 0.298-0.178-0.071-0.355-0.14-0.516-0.245-0.407-0.309-0.669-0.814-0.622-1.331 0.019-0.396 0.219-0.762 0.503-1.031 2.808-2.802 5.605-5.614 8.418-8.41-2.833-2.837-5.669-5.671-8.504-8.506-0.336-0.338-0.487-0.844-0.396-1.311 0.082-0.491 0.437-0.92 0.895-1.109 0.302-0.126 0.634-0.139 0.954-0.086 0.259 0.091 0.514 0.212 0.702 0.418 2.824 2.819 5.643 5.643 8.466 8.464 2.828-2.815 5.643-5.643 8.467-8.461 0.276-0.274 0.655-0.468 1.051-0.452z"></path>
</svg>
