<!-- Generated by IcoMoon.io -->
<svg version="1.1" xmlns="http://www.w3.org/2000/svg" width="32" height="32" viewBox="0 0 32 32">
<title>close-red-negative</title>
<path fill="#ef6c69" d="M4.593 2.046c0.196-0.034 0.396-0.046 0.594-0.046 7.126 0.001 14.251 0.001 21.377 0.001 0.481-0.014 0.973 0.024 1.422 0.206 1.169 0.426 2.005 1.612 2.012 2.856 0.003 7.25 0 14.5 0.002 21.749 0.004 0.382-0.055 0.766-0.186 1.125-0.415 1.192-1.611 2.055-2.874 2.062-7.063 0.003-14.124 0-21.187 0.001-0.441-0.005-0.889 0.027-1.322-0.078-1.388-0.291-2.457-1.627-2.431-3.046 0-7.249 0-14.499 0-21.748-0.004-0.792 0.309-1.578 0.856-2.151 0.459-0.488 1.079-0.817 1.738-0.932zM7.678 7.552c-0.308 0.346-0.366 0.878-0.163 1.29 0.101 0.225 0.293 0.386 0.463 0.558 2.176 2.179 4.354 4.358 6.529 6.538-2.178 2.178-4.353 4.358-6.531 6.538-0.156 0.156-0.322 0.311-0.431 0.506-0.246 0.432-0.182 1.019 0.16 1.381 0.313 0.354 0.859 0.514 1.301 0.321 0.263-0.083 0.45-0.294 0.637-0.484 2.183-2.191 4.369-4.378 6.552-6.567 2.271 2.266 4.536 4.539 6.804 6.808 0.398 0.394 1.090 0.436 1.527 0.082 0.563-0.395 0.647-1.286 0.161-1.774-2.262-2.274-4.536-4.537-6.797-6.813 2.258-2.256 4.51-4.517 6.767-6.773 0.289-0.279 0.422-0.719 0.318-1.108-0.092-0.43-0.442-0.79-0.869-0.893-0.4-0.111-0.851 0.017-1.141 0.311-2.259 2.255-4.509 4.52-6.771 6.771-2.215-2.223-4.434-4.442-6.65-6.664-0.184-0.188-0.396-0.368-0.662-0.419-0.432-0.126-0.92 0.051-1.204 0.393z"></path>
<path fill="#fff" d="M7.678 7.552c0.284-0.342 0.772-0.519 1.204-0.393 0.266 0.051 0.479 0.231 0.662 0.419 2.216 2.222 4.435 4.441 6.65 6.664 2.262-2.251 4.512-4.516 6.771-6.771 0.291-0.294 0.741-0.422 1.141-0.311 0.427 0.103 0.777 0.463 0.869 0.893 0.104 0.389-0.029 0.829-0.318 1.108-2.258 2.256-4.51 4.517-6.768 6.773 2.261 2.276 4.535 4.538 6.797 6.813 0.486 0.488 0.402 1.379-0.161 1.774-0.437 0.354-1.129 0.313-1.527-0.082-2.268-2.269-4.532-4.542-6.804-6.808-2.184 2.19-4.37 4.377-6.553 6.567-0.188 0.19-0.374 0.401-0.637 0.484-0.442 0.194-0.988 0.034-1.301-0.321-0.342-0.363-0.406-0.949-0.16-1.381 0.109-0.195 0.275-0.349 0.431-0.506 2.178-2.179 4.352-4.359 6.531-6.537-2.176-2.18-4.353-4.359-6.529-6.538-0.169-0.172-0.361-0.333-0.463-0.558-0.203-0.412-0.144-0.944 0.163-1.29z"></path>
</svg>
