<!-- Generated by IcoMoon.io -->
<svg version="1.1" xmlns="http://www.w3.org/2000/svg" width="32" height="32" viewBox="0 0 32 32">
<title>contact-phone</title>
<path fill="#ef6c69" d="M15.082 0.466c2.727-0.164 5.497 0.402 7.934 1.641 2.959 1.491 5.416 3.954 6.898 6.919 1.236 2.45 1.794 5.233 1.616 7.971-0.145 2.352-0.837 4.669-2.009 6.714-2.029 3.579-5.531 6.289-9.514 7.331-2.881 0.766-5.982 0.686-8.818-0.238-2.664-0.862-5.081-2.466-6.918-4.578-1.433-1.64-2.519-3.582-3.154-5.667-0.904-2.949-0.905-6.169 0-9.118 0.862-2.832 2.562-5.399 4.821-7.312 2.544-2.17 5.805-3.481 9.145-3.664zM10.134 8.322c-0.522 0.518-1.043 1.039-1.562 1.562-0.662 0.672-1.059 1.606-1.050 2.553-0.016 0.787 0.246 1.572 0.714 2.203 0.208 0.286 0.474 0.523 0.72 0.775 2.773 2.771 5.542 5.545 8.317 8.314 0.672 0.646 1.605 1.017 2.538 0.999 0.947 0.010 1.881-0.387 2.553-1.049 0.524-0.519 1.045-1.041 1.564-1.563 0.223-0.204 0.242-0.596 0.020-0.808-1.45-1.469-2.916-2.921-4.374-4.381-0.209-0.238-0.621-0.229-0.827 0.008-0.481 0.483-0.965 0.962-1.443 1.447-1.157-1.133-2.304-2.277-3.441-3.431 0.486-0.481 0.968-0.966 1.452-1.449 0.232-0.207 0.241-0.611 0.011-0.823-1.396-1.397-2.789-2.797-4.192-4.187-0.117-0.112-0.221-0.249-0.375-0.312-0.214-0.077-0.469-0.026-0.625 0.143z"></path>
<path fill="#ef6c69" d="M9.379 10.694c0.393-0.391 0.783-0.785 1.177-1.174 1.181 1.192 2.373 2.374 3.565 3.556-0.401 0.405-0.804 0.808-1.209 1.209-0.179 0.17-0.447 0.313-0.449 0.594-0.044 0.269 0.166 0.466 0.343 0.633 1.366 1.364 2.729 2.731 4.096 4.094 0.161 0.174 0.428 0.236 0.646 0.136 0.196-0.087 0.295-0.291 0.443-0.435 0.393-0.394 0.785-0.789 1.181-1.179 1.187 1.189 2.369 2.381 3.559 3.567-0.379 0.384-0.763 0.763-1.143 1.146-0.462 0.471-1.116 0.754-1.778 0.751-0.664 0.012-1.326-0.259-1.794-0.731-2.858-2.873-5.738-5.725-8.599-8.594-0.468-0.463-0.757-1.107-0.758-1.768-0.018-0.667 0.252-1.331 0.72-1.805z"></path>
<path fill="#fff" d="M10.134 8.322c0.156-0.169 0.411-0.22 0.625-0.143 0.154 0.063 0.258 0.2 0.375 0.312 1.403 1.39 2.796 2.79 4.192 4.187 0.231 0.212 0.221 0.616-0.011 0.823-0.484 0.483-0.966 0.969-1.452 1.449 1.137 1.153 2.284 2.298 3.441 3.431 0.478-0.485 0.962-0.964 1.443-1.447 0.206-0.237 0.618-0.246 0.827-0.008 1.458 1.461 2.924 2.913 4.374 4.381 0.222 0.211 0.203 0.603-0.020 0.808-0.519 0.523-1.041 1.044-1.564 1.563-0.672 0.662-1.606 1.059-2.553 1.049-0.933 0.018-1.866-0.352-2.538-0.999-2.775-2.769-5.544-5.543-8.317-8.314-0.246-0.252-0.512-0.489-0.72-0.775-0.468-0.631-0.73-1.416-0.714-2.203-0.009-0.946 0.388-1.881 1.050-2.553 0.519-0.522 1.039-1.044 1.562-1.562zM9.379 10.694c-0.467 0.474-0.738 1.138-0.72 1.805 0.001 0.661 0.29 1.305 0.758 1.768 2.861 2.869 5.741 5.721 8.599 8.594 0.468 0.471 1.13 0.742 1.794 0.731 0.663 0.003 1.316-0.28 1.778-0.751 0.38-0.383 0.764-0.762 1.143-1.146-1.19-1.186-2.372-2.378-3.559-3.567-0.396 0.39-0.788 0.785-1.181 1.179-0.148 0.144-0.247 0.348-0.443 0.435-0.218 0.099-0.485 0.038-0.646-0.136-1.367-1.363-2.73-2.73-4.096-4.094-0.178-0.166-0.387-0.363-0.343-0.633 0.002-0.281 0.27-0.424 0.449-0.594 0.404-0.401 0.807-0.804 1.209-1.209-1.192-1.182-2.384-2.363-3.565-3.556-0.394 0.389-0.784 0.783-1.177 1.174z"></path>
</svg>
