<!-- Generated by IcoMoon.io -->
<svg version="1.1" xmlns="http://www.w3.org/2000/svg" width="32" height="32" viewBox="0 0 32 32">
<title>contact-fax</title>
<path fill="#ef6c69" d="M15.082 0.465c2.683-0.161 5.406 0.384 7.813 1.581 3.137 1.545 5.72 4.181 7.199 7.35 1.22 2.585 1.691 5.512 1.37 8.35-0.246 2.23-0.987 4.403-2.153 6.32-1.139 1.878-2.681 3.511-4.49 4.756-1.851 1.278-3.983 2.146-6.201 2.52-2.954 0.503-6.053 0.141-8.801-1.056-3.086-1.33-5.711-3.693-7.364-6.618-1.281-2.25-1.979-4.827-2.015-7.416-0.051-2.816 0.681-5.643 2.105-8.075 1.275-2.189 3.089-4.060 5.241-5.396 2.187-1.366 4.721-2.17 7.296-2.315zM15.578 7.255c0.001 0.459 0.001 0.917-0.001 1.376-0.46 0.001-0.92-0.001-1.38 0.001 0.002 0.689 0.001 1.377 0.001 2.067-0.803 0.004-1.607-0.005-2.411 0.004 0.011-0.415-0.063-0.842-0.296-1.192-0.352-0.564-1.013-0.918-1.679-0.881-0.441-0.024-0.901 0.032-1.277 0.279-0.607 0.366-0.96 1.086-0.899 1.79-0.189 0-0.379-0.008-0.568 0.013-0.488 0.074-0.918 0.433-1.081 0.898-0.104 0.264-0.072 0.551-0.075 0.827 0.001 2.895-0.001 5.79 0.001 8.685 0.011 0.673 0.602 1.275 1.274 1.302 0.731 0.009 1.463-0.004 2.194 0.006-0.031 0.090-0.031 0.203-0.116 0.265-0.117 0.115-0.298 0.064-0.446 0.078-0.331 0.015-0.688-0.063-0.996 0.098-0.326 0.159-0.546 0.514-0.531 0.879 0.013 0.289-0.046 0.598 0.081 0.869 0.149 0.338 0.505 0.581 0.878 0.565 1.356 0.001 2.713-0.002 4.068 0.001 0.203-0.003 0.417 0.016 0.606-0.071 0.341-0.142 0.584-0.496 0.584-0.867 0.005-0.372-0.003-0.744 0.001-1.116 0.369-0.032 0.67-0.335 0.703-0.703 3.473-0.003 6.945 0.001 10.418-0.002 0.683-0.009 1.297-0.615 1.303-1.299 0.003-2.916 0-5.832 0.002-8.749 0.001-0.296 0.021-0.607-0.119-0.879-0.215-0.489-0.731-0.804-1.261-0.808-0.001-0.686-0.001-1.372 0.001-2.058-0.46-0.002-0.92 0.001-1.38-0.001-0.001-0.459-0.001-0.918 0-1.377-2.533-0.001-5.066-0.001-7.598 0.001z"></path>
<path fill="#ef6c69" d="M16.267 7.944c2.072-0.002 4.145-0.002 6.218 0-0.001 0.918-0.001 1.836 0.001 2.755-2.072 0.002-4.146 0.002-6.219 0 0.003-0.919 0.001-1.837 0.001-2.755z"></path>
<path fill="#ef6c69" d="M8.336 10.432c0.033-0.567 0.525-1.064 1.092-1.101 0.347-0.020 0.722-0.037 1.034 0.144 0.371 0.201 0.616 0.607 0.623 1.029 0.010 0.362 0.001 0.724 0.004 1.086-0.897-0.267-1.866-0.262-2.764-0.002 0.008-0.386-0.011-0.771 0.011-1.156z"></path>
<path fill="#ef6c69" d="M14.887 9.322c0.23-0.001 0.461-0.001 0.691-0.001 0.001 0.459 0.001 0.919 0 1.377-0.23 0.001-0.461 0.001-0.691 0 0.002-0.459 0.001-0.918 0-1.377z"></path>
<path fill="#ef6c69" d="M23.176 9.321c0.23-0.001 0.46-0.001 0.69 0.001-0.001 0.459-0.002 0.918 0 1.377-0.23 0.001-0.461 0.001-0.691 0.001 0-0.459-0.001-0.919 0.001-1.378z"></path>
<path fill="#ef6c69" d="M6.826 11.577c0.214-0.211 0.532-0.19 0.809-0.189 0.004 2.161-0.001 4.324 0.003 6.485 0.016 0.927 0.811 1.731 1.727 1.806-0.004 0.686-0.002 1.371-0.001 2.058-0.685-0.001-1.37 0.005-2.054-0.003-0.394 0.015-0.737-0.344-0.708-0.738-0.002-2.872 0.001-5.746-0.001-8.619-0.011-0.28-0.006-0.603 0.226-0.801z"></path>
<path fill="#ef6c69" d="M12.124 11.391c0.691-0.002 1.383-0.001 2.074-0.001 0 3.219 0.002 6.438-0.001 9.657 3.453 0.002 6.906 0.001 10.359 0.001-0.003-2.016 0-4.031-0.001-6.046 0.008-1.207-0.017-2.415 0.012-3.622 0.374 0.032 0.703 0.353 0.674 0.741 0.006 2.919-0.001 5.839 0.003 8.758-0.003 0.175 0 0.363-0.099 0.517-0.128 0.225-0.387 0.35-0.641 0.341-3.43 0.006-6.86-0.002-10.29 0.004-0.011-0.302-0.226-0.598-0.528-0.659-0.292-0.014-0.585 0.003-0.877-0.007-0.367-0.035-0.664 0.316-0.686 0.663-0.69 0.005-1.38 0.001-2.070 0.002-0.001-0.686-0.001-1.372-0.001-2.059 0.801-0.068 1.537-0.669 1.688-1.471 0.147 0.026 0.186-0.127 0.238-0.229 0.134-0.286 0.168-0.607 0.148-0.919-0.001-1.889-0.002-3.779-0.001-5.669z"></path>
<path fill="#ef6c69" d="M14.886 11.391c2.993-0.002 5.986-0.001 8.979-0.001-0.001 0.919-0.004 1.838 0.002 2.757-2.994 0.002-5.988 0.002-8.982 0 0.006-0.919 0.002-1.838 0.001-2.756zM15.576 11.736c0.003 0.689 0.001 1.377 0.001 2.067 2.532 0.001 5.066 0.001 7.599 0-0.001-0.689-0.003-1.378 0.001-2.067-2.534-0.002-5.067-0.002-7.601 0z"></path>
<path fill="#ef6c69" d="M8.329 12.321c0.887-0.31 1.869-0.306 2.758-0.003 0.005 1.81 0.003 3.62 0.001 5.431 0.007 0.441-0.245 0.871-0.633 1.079-0.31 0.176-0.681 0.161-1.024 0.141-0.434-0.034-0.833-0.325-1.001-0.726-0.096-0.213-0.104-0.451-0.103-0.679 0.003-1.748-0.002-3.495 0.003-5.242z"></path>
<path fill="#ef6c69" d="M16.267 12.426c2.073-0.002 4.146-0.002 6.219-0.001-0.001 0.229-0.001 0.459 0 0.688-2.073 0.001-4.146 0.002-6.219 0 0.002-0.229 0.002-0.458 0-0.687z"></path>
<path fill="#ef6c69" d="M14.886 14.839c2.993-0.002 5.987-0.002 8.98 0-0.003 1.839-0.003 3.679 0 5.518-2.993 0.002-5.986 0.002-8.98 0 0.002-1.839 0.003-3.679 0-5.518zM15.576 15.529c0.002 0.459 0.002 0.919 0 1.379 0.461 0.001 0.923 0.002 1.384-0.001-0.001-0.459-0.002-0.918 0.001-1.376-0.461-0.006-0.923-0.002-1.384-0.002zM17.648 15.529c0.002 0.459 0.002 0.919 0 1.379 0.462 0.001 0.923 0.001 1.384 0-0.002-0.46-0.002-0.919 0-1.379-0.461-0.001-0.922-0.001-1.384 0zM19.721 15.53c0.003 0.459 0.003 0.917 0 1.377 0.461 0.004 0.923 0.002 1.384 0.001-0.002-0.459-0.002-0.919 0-1.379-0.461-0.001-0.922-0.002-1.384 0.001zM21.791 15.534c0.006 0.457 0.003 0.916 0.003 1.373 0.461 0.004 0.922 0.002 1.384 0.001-0.003-0.459-0.003-0.919 0-1.379-0.462 0.001-0.924-0.007-1.386 0.004zM15.575 17.601c0.006 0.689 0.002 1.378 0.002 2.067 2.533 0.001 5.066 0.001 7.599 0-0.001-0.689-0.004-1.378 0.002-2.067-2.534-0.004-5.069-0.003-7.603-0.001z"></path>
<path fill="#ef6c69" d="M16.266 18.291c2.074-0.003 4.148-0.003 6.221 0-0.003 0.229-0.003 0.458-0.001 0.688-2.073 0.001-4.146 0.001-6.219 0 0.002-0.229 0.002-0.459-0.001-0.688z"></path>
<path fill="#ef6c69" d="M12.823 21.741c0.225-0.004 0.45-0.004 0.675-0.001 0.015 0.226 0.015 0.453 0.001 0.678-0.226 0.001-0.453 0.001-0.678-0.001-0.005-0.226-0.005-0.451 0.002-0.676z"></path>
<path fill="#ef6c69" d="M10.061 22.427c0.682-0.001 1.366-0.001 2.048 0 0.037 0.369 0.336 0.674 0.709 0.704-0.006 0.372 0.018 0.746-0.011 1.118-0.012 0.181-0.207 0.264-0.367 0.245-1.378-0.001-2.756 0.003-4.134-0.003-0.205 0.026-0.356-0.172-0.324-0.366 0.009-0.218-0.068-0.543 0.191-0.645 0.376-0.057 0.76 0.020 1.136-0.039 0.458-0.096 0.782-0.552 0.754-1.015z"></path>
<path fill="#fff" d="M15.578 7.255c2.532-0.002 5.065-0.001 7.598-0.001-0.001 0.459-0.001 0.918 0 1.377 0.46 0.002 0.92-0.001 1.38 0.001-0.001 0.686-0.001 1.372-0.001 2.058 0.529 0.004 1.046 0.319 1.261 0.808 0.14 0.271 0.12 0.583 0.119 0.879-0.002 2.916 0.001 5.832-0.002 8.749-0.006 0.684-0.621 1.291-1.303 1.299-3.473 0.003-6.945-0.001-10.418 0.002-0.033 0.368-0.334 0.671-0.703 0.703-0.004 0.372 0.004 0.744-0.001 1.116 0 0.372-0.242 0.725-0.584 0.867-0.189 0.087-0.403 0.069-0.606 0.071-1.356-0.003-2.712-0.001-4.068-0.001-0.373 0.016-0.729-0.227-0.878-0.565-0.127-0.271-0.069-0.58-0.081-0.869-0.016-0.364 0.205-0.72 0.531-0.879 0.308-0.16 0.664-0.082 0.996-0.098 0.148-0.014 0.329 0.037 0.446-0.078 0.085-0.062 0.086-0.175 0.116-0.265-0.731-0.011-1.463 0.003-2.194-0.006-0.672-0.027-1.263-0.629-1.274-1.302-0.001-2.895 0-5.79-0.001-8.685 0.003-0.276-0.029-0.563 0.075-0.827 0.163-0.465 0.593-0.824 1.081-0.898 0.189-0.021 0.379-0.013 0.568-0.013-0.061-0.704 0.292-1.424 0.899-1.79 0.377-0.248 0.837-0.303 1.277-0.279 0.666-0.037 1.328 0.318 1.679 0.881 0.233 0.351 0.307 0.777 0.296 1.192 0.804-0.009 1.607-0.001 2.411-0.004 0-0.689 0.001-1.378-0.001-2.067 0.46-0.002 0.92 0 1.38-0.001 0.002-0.459 0.001-0.918 0.001-1.376zM16.267 7.944c0.001 0.918 0.002 1.836-0.001 2.755 2.073 0.002 4.146 0.002 6.219 0-0.002-0.919-0.001-1.837-0.001-2.755-2.072-0.002-4.145-0.002-6.218 0zM8.336 10.432c-0.023 0.385-0.003 0.771-0.011 1.156 0.898-0.26 1.867-0.265 2.764 0.002-0.002-0.362 0.006-0.724-0.004-1.086-0.006-0.422-0.251-0.828-0.623-1.029-0.312-0.181-0.687-0.164-1.034-0.144-0.568 0.036-1.059 0.534-1.092 1.101zM14.887 9.322c0.001 0.459 0.002 0.918 0 1.377 0.23 0.001 0.461 0.001 0.691 0 0.001-0.459 0.001-0.918 0-1.377-0.23-0.001-0.461-0.001-0.691 0.001zM23.176 9.321c-0.001 0.459-0.001 0.919-0.001 1.378 0.23 0.001 0.461 0.001 0.691-0.001-0.002-0.459-0.001-0.918 0-1.377-0.23-0.001-0.46-0.001-0.69-0.001zM6.826 11.577c-0.231 0.198-0.237 0.521-0.226 0.801 0.003 2.873-0.001 5.746 0.001 8.619-0.029 0.393 0.314 0.753 0.708 0.738 0.684 0.008 1.369 0.002 2.054 0.003-0.001-0.686-0.003-1.372 0.001-2.058-0.916-0.075-1.711-0.879-1.727-1.806-0.003-2.161 0.002-4.324-0.003-6.485-0.277-0.001-0.595-0.023-0.809 0.189zM12.124 11.391c-0.001 1.889 0 3.779 0.001 5.669 0.020 0.313-0.014 0.633-0.148 0.919-0.052 0.102-0.091 0.255-0.238 0.229-0.15 0.802-0.887 1.403-1.688 1.471 0 0.686-0.001 1.372 0.001 2.059 0.69-0.001 1.38 0.003 2.070-0.002 0.022-0.347 0.319-0.698 0.686-0.663 0.293 0.009 0.586-0.008 0.877 0.007 0.302 0.061 0.518 0.358 0.528 0.659 3.43-0.006 6.86 0.003 10.29-0.004 0.254 0.009 0.514-0.116 0.641-0.341 0.099-0.154 0.096-0.342 0.099-0.517-0.004-2.919 0.003-5.839-0.003-8.758 0.029-0.387-0.301-0.709-0.674-0.741-0.029 1.207-0.004 2.414-0.012 3.622 0.001 2.015-0.002 4.031 0.001 6.046-3.453 0.001-6.906 0.001-10.359-0.001 0.003-3.219 0.001-6.438 0.001-9.657-0.691 0-1.383-0.002-2.074 0.001zM14.886 11.391c0.001 0.919 0.004 1.838-0.001 2.756 2.994 0.002 5.988 0.002 8.982 0-0.006-0.919-0.003-1.838-0.002-2.757-2.993-0.001-5.986-0.001-8.979 0.001zM8.329 12.321c-0.005 1.748 0 3.495-0.003 5.242-0.001 0.229 0.007 0.466 0.103 0.679 0.168 0.401 0.568 0.692 1.001 0.726 0.344 0.020 0.714 0.035 1.024-0.141 0.388-0.208 0.64-0.638 0.633-1.079 0.002-1.811 0.004-3.621-0.001-5.431-0.889-0.303-1.871-0.307-2.758 0.003zM14.886 14.839c0.003 1.839 0.002 3.679 0 5.518 2.994 0.002 5.987 0.002 8.98 0-0.003-1.839-0.003-3.679 0-5.518-2.993-0.002-5.987-0.002-8.98 0zM12.823 21.741c-0.007 0.225-0.007 0.451-0.002 0.676 0.226 0.002 0.452 0.002 0.678 0.001 0.014-0.226 0.014-0.453-0.001-0.678-0.225-0.004-0.45-0.004-0.675 0.001zM10.061 22.427c0.028 0.462-0.296 0.919-0.754 1.015-0.376 0.059-0.76-0.018-1.136 0.039-0.259 0.102-0.181 0.427-0.191 0.645-0.032 0.194 0.119 0.392 0.324 0.366 1.377 0.006 2.756 0.001 4.134 0.003 0.161 0.019 0.355-0.064 0.367-0.245 0.029-0.372 0.005-0.746 0.011-1.118-0.373-0.031-0.672-0.335-0.709-0.704-0.682-0.001-1.366-0.001-2.048 0z"></path>
<path fill="#fff" d="M15.576 11.736c2.534-0.002 5.067-0.002 7.601 0-0.003 0.689-0.002 1.377-0.001 2.067-2.533 0.001-5.066 0.001-7.599 0 0-0.689 0.002-1.378-0.001-2.067zM16.267 12.426c0.002 0.229 0.002 0.458 0 0.687 2.073 0.002 4.146 0.001 6.219 0-0.001-0.229-0.001-0.458 0-0.688-2.072-0.001-4.146-0.002-6.219 0.001z"></path>
<path fill="#fff" d="M15.576 15.529c0.461 0 0.923-0.004 1.384 0.002-0.003 0.459-0.002 0.918-0.001 1.376-0.461 0.003-0.922 0.001-1.384 0.001 0.002-0.459 0.002-0.919 0-1.379z"></path>
<path fill="#fff" d="M17.648 15.529c0.462-0.001 0.923-0.001 1.384 0-0.002 0.459-0.002 0.919 0 1.379-0.461 0.001-0.922 0.001-1.384 0 0.002-0.459 0.002-0.919 0-1.379z"></path>
<path fill="#fff" d="M19.721 15.53c0.462-0.003 0.923-0.001 1.384-0.001-0.002 0.459-0.002 0.919 0 1.379-0.461 0.001-0.923 0.003-1.384-0.001 0.003-0.459 0.003-0.918 0-1.377z"></path>
<path fill="#fff" d="M21.791 15.534c0.462-0.011 0.924-0.003 1.386-0.004-0.003 0.459-0.003 0.919 0 1.379-0.461 0.001-0.922 0.003-1.384-0.001 0.001-0.457 0.004-0.916-0.003-1.373z"></path>
<path fill="#fff" d="M15.575 17.601c2.534-0.003 5.069-0.003 7.603 0.001-0.006 0.689-0.003 1.378-0.002 2.067-2.533 0.001-5.066 0.001-7.599 0 0.001-0.689 0.004-1.378-0.002-2.067zM16.266 18.291c0.003 0.229 0.003 0.458 0.001 0.688 2.073 0.001 4.146 0.001 6.219 0-0.003-0.229-0.003-0.459 0.001-0.688-2.074-0.003-4.148-0.003-6.221 0z"></path>
</svg>
