<!-- Generated by IcoMoon.io -->
<svg version="1.1" xmlns="http://www.w3.org/2000/svg" width="32" height="32" viewBox="0 0 32 32">
<title>contact-location</title>
<path fill="#ef6c69" d="M14.723 0.49c2.735-0.226 5.529 0.28 8.003 1.473 3.088 1.475 5.659 4.001 7.189 7.062 1.238 2.453 1.795 5.24 1.615 7.981-0.151 2.426-0.885 4.813-2.124 6.904-1.148 1.943-2.724 3.632-4.582 4.912-1.939 1.339-4.186 2.227-6.516 2.571-2.791 0.417-5.696 0.066-8.299-1.026-3.181-1.321-5.889-3.735-7.574-6.738-1.268-2.242-1.958-4.804-1.992-7.379-0.049-2.725 0.634-5.459 1.97-7.836 1.494-2.677 3.796-4.896 6.53-6.284 1.796-0.917 3.772-1.476 5.783-1.638zM12.012 5.827c-1.348 0.862-2.408 2.173-2.95 3.679-0.442 1.19-0.548 2.498-0.336 3.747 0.157 0.986 0.554 1.918 1.070 2.767 1.296 2.168 2.579 4.344 3.887 6.506-0.137 0.057-0.286 0.063-0.429 0.087-1.091 0.196-2.181 0.499-3.144 1.065-0.607 0.369-1.202 0.869-1.425 1.569-0.182 0.524-0.067 1.119 0.247 1.569 0.363 0.514 0.884 0.896 1.434 1.19 0.841 0.449 1.766 0.716 2.696 0.903 1.773 0.322 3.599 0.34 5.379 0.063 1.059-0.175 2.113-0.461 3.065-0.964 0.629-0.34 1.242-0.79 1.581-1.436 0.288-0.549 0.236-1.235-0.096-1.753-0.415-0.651-1.085-1.087-1.768-1.417-0.994-0.469-2.076-0.716-3.158-0.88 1.134-1.829 2.27-3.659 3.406-5.488 0.341-0.56 0.707-1.106 1.006-1.691 0.674-1.313 0.932-2.835 0.735-4.298-0.218-1.721-1.087-3.346-2.381-4.5-1.157-1.038-2.651-1.706-4.203-1.836-1.606-0.157-3.261 0.241-4.617 1.117z"></path>
<path fill="#ef6c69" d="M15.504 7.926c1.084-0.122 2.209 0.204 3.060 0.886 0.608 0.478 1.073 1.132 1.335 1.858 0.376 1.030 0.325 2.209-0.144 3.201-0.456 0.991-1.318 1.785-2.343 2.158-0.854 0.322-1.816 0.349-2.686 0.071-0.843-0.26-1.601-0.795-2.123-1.508-0.649-0.874-0.941-2.005-0.783-3.083 0.151-1.068 0.728-2.073 1.586-2.729 0.604-0.469 1.339-0.766 2.098-0.854z"></path>
<path fill="#ef6c69" d="M11.049 24.117c0.981-0.432 2.038-0.676 3.101-0.796 0.414 0.699 0.833 1.394 1.246 2.094 0.071 0.111 0.136 0.239 0.261 0.297 0.182 0.087 0.42 0.020 0.522-0.157 0.463-0.745 0.93-1.489 1.386-2.238 0.392 0.006 0.778 0.087 1.163 0.161 0.953 0.19 1.902 0.479 2.736 0.989 0.394 0.256 0.795 0.575 0.949 1.038 0.105 0.294 0.017 0.626-0.164 0.871-0.333 0.47-0.844 0.773-1.35 1.024-1.356 0.628-2.857 0.867-4.34 0.932-1.361 0.041-2.738-0.047-4.059-0.396-0.758-0.192-1.504-0.466-2.161-0.897-0.343-0.231-0.672-0.517-0.846-0.9-0.143-0.313-0.071-0.686 0.124-0.959 0.347-0.5 0.895-0.808 1.433-1.063z"></path>
<path fill="#fff" d="M12.012 5.827c1.356-0.877 3.011-1.275 4.617-1.117 1.552 0.131 3.045 0.798 4.203 1.836 1.293 1.154 2.163 2.779 2.381 4.5 0.197 1.463-0.061 2.985-0.735 4.298-0.299 0.585-0.665 1.131-1.006 1.691-1.136 1.829-2.271 3.658-3.406 5.488 1.082 0.164 2.164 0.411 3.158 0.88 0.683 0.33 1.353 0.766 1.768 1.417 0.331 0.518 0.384 1.204 0.096 1.753-0.338 0.646-0.952 1.096-1.581 1.436-0.953 0.504-2.006 0.789-3.065 0.964-1.78 0.277-3.606 0.259-5.379-0.063-0.931-0.188-1.856-0.454-2.696-0.903-0.551-0.294-1.071-0.676-1.434-1.19-0.314-0.45-0.429-1.045-0.247-1.569 0.223-0.699 0.818-1.199 1.425-1.569 0.963-0.566 2.053-0.869 3.144-1.065 0.144-0.024 0.293-0.031 0.429-0.087-1.308-2.161-2.591-4.337-3.887-6.506-0.516-0.849-0.913-1.781-1.070-2.767-0.212-1.249-0.106-2.557 0.336-3.747 0.542-1.507 1.602-2.817 2.95-3.679zM15.504 7.926c-0.759 0.088-1.494 0.384-2.098 0.854-0.858 0.656-1.434 1.661-1.586 2.729-0.158 1.078 0.133 2.209 0.783 3.083 0.522 0.713 1.279 1.248 2.123 1.508 0.87 0.278 1.832 0.251 2.686-0.071 1.025-0.373 1.887-1.167 2.343-2.158 0.469-0.992 0.521-2.171 0.144-3.201-0.262-0.726-0.727-1.38-1.335-1.858-0.851-0.682-1.976-1.009-3.060-0.886zM11.049 24.117c-0.537 0.256-1.086 0.563-1.432 1.063-0.195 0.274-0.267 0.646-0.124 0.959 0.174 0.383 0.503 0.669 0.846 0.9 0.656 0.431 1.403 0.704 2.161 0.897 1.321 0.349 2.697 0.436 4.059 0.396 1.482-0.064 2.984-0.304 4.34-0.932 0.506-0.251 1.017-0.554 1.35-1.024 0.182-0.246 0.269-0.577 0.164-0.871-0.154-0.462-0.554-0.782-0.949-1.038-0.834-0.51-1.783-0.799-2.736-0.989-0.384-0.073-0.77-0.155-1.163-0.161-0.456 0.749-0.923 1.493-1.386 2.238-0.102 0.177-0.34 0.244-0.522 0.157-0.125-0.058-0.191-0.186-0.261-0.297-0.413-0.7-0.832-1.396-1.246-2.094-1.063 0.119-2.119 0.364-3.101 0.796z"></path>
</svg>
