<!-- Generated by IcoMoon.io -->
<svg version="1.1" xmlns="http://www.w3.org/2000/svg" width="32" height="32" viewBox="0 0 32 32">
<title>contact-mail</title>
<path fill="#ef6c69" d="M15.082 0.465c2.682-0.161 5.404 0.383 7.811 1.58 3.197 1.573 5.817 4.281 7.284 7.528 1.168 2.56 1.607 5.441 1.281 8.234-0.259 2.268-1.031 4.474-2.239 6.409-1.13 1.816-2.637 3.394-4.398 4.606-1.864 1.287-4.014 2.159-6.249 2.527-2.583 0.43-5.274 0.204-7.744-0.669-2.954-1.037-5.577-2.993-7.412-5.529-1.434-1.955-2.392-4.256-2.777-6.649-0.422-2.609-0.176-5.328 0.729-7.813 0.933-2.577 2.566-4.893 4.671-6.646 2.529-2.12 5.748-3.398 9.043-3.579zM8.144 8.023c-1.324 0.117-2.453 1.326-2.444 2.661 0 3.731-0.003 7.462 0.001 11.192 0.022 1.371 1.242 2.584 2.611 2.609 5.106 0.004 10.211 0.001 15.316 0.001 1.049 0 2.039-0.696 2.446-1.654 0.148-0.341 0.229-0.711 0.227-1.082 0-3.564-0.001-7.128 0-10.692 0.006-0.374 0.008-0.756-0.115-1.114-0.328-1.098-1.404-1.932-2.557-1.932-3.521-0.001-7.043 0-10.565-0.001-1.639 0.008-3.28-0.014-4.919 0.011z"></path>
<path fill="#ef6c69" d="M8.021 9.094c0.157-0.037 0.319-0.050 0.481-0.051 4.999 0.002 9.999 0 14.999 0.001 0.887-0.017 1.698 0.757 1.712 1.646 0.005 3.666 0 7.333 0.003 10.999 0.009 0.694-0.453 1.358-1.101 1.6-0.311 0.132-0.655 0.119-0.986 0.116-4.917-0.001-9.833 0.001-14.75-0.001-0.71 0.002-1.379-0.492-1.603-1.162-0.113-0.297-0.075-0.62-0.080-0.93-0.005-3.542 0-7.084-0.003-10.626 0.003-0.756 0.603-1.43 1.329-1.592zM8.957 10.22c-0.303 0.113-0.476 0.554-0.238 0.809 1.611 1.929 3.224 3.856 4.834 5.786 0.559 0.669 1.381 1.136 2.259 1.188 0.715 0.035 1.46-0.152 2.025-0.606 0.257-0.2 0.448-0.466 0.657-0.712 1.556-1.864 3.114-3.725 4.669-5.588 0.284-0.287 0.036-0.822-0.346-0.856-0.201-0.010-0.384 0.106-0.505 0.258-1.601 1.919-3.207 3.834-4.806 5.754-0.195 0.248-0.441 0.459-0.731 0.588-0.749 0.364-1.719 0.15-2.249-0.491-1.662-1.982-3.32-3.968-4.982-5.95-0.13-0.182-0.376-0.25-0.586-0.179zM11.402 16.85c-0.131 0.034-0.246 0.115-0.331 0.219-1.16 1.384-2.326 2.762-3.487 4.145-0.152 0.162-0.141 0.417-0.018 0.593 0.179 0.304 0.668 0.272 0.868 0.006 1.096-1.302 2.191-2.604 3.287-3.905 0.105-0.129 0.235-0.247 0.296-0.406 0.094-0.347-0.249-0.765-0.617-0.652zM20.15 16.841c-0.227 0.114-0.354 0.404-0.256 0.644 0.058 0.121 0.152 0.219 0.238 0.321 1.168 1.377 2.326 2.762 3.495 4.136 0.304 0.317 0.836 0.019 0.848-0.381 0.033-0.234-0.154-0.399-0.289-0.561-1.136-1.344-2.27-2.69-3.405-4.035-0.146-0.183-0.427-0.243-0.631-0.125z"></path>
<path fill="#fff" d="M8.144 8.023c1.639-0.026 3.28-0.004 4.919-0.011 3.522 0.001 7.044 0 10.565 0.001 1.152 0 2.229 0.834 2.557 1.932 0.123 0.358 0.121 0.741 0.115 1.114-0.001 3.564 0 7.128 0 10.692 0.003 0.372-0.079 0.742-0.227 1.082-0.406 0.959-1.396 1.654-2.446 1.654-5.106 0-10.211 0.003-15.316-0.001-1.369-0.026-2.588-1.239-2.611-2.609-0.004-3.731-0.001-7.462-0.001-11.193-0.009-1.336 1.12-2.544 2.444-2.661zM8.021 9.094c-0.727 0.162-1.326 0.836-1.329 1.592 0.003 3.542-0.002 7.084 0.003 10.626 0.005 0.31-0.033 0.633 0.080 0.93 0.224 0.669 0.893 1.164 1.603 1.162 4.917 0.001 9.833 0 14.75 0.001 0.331 0.004 0.674 0.016 0.986-0.116 0.649-0.242 1.11-0.906 1.101-1.6-0.003-3.666 0.003-7.333-0.003-10.999-0.014-0.889-0.824-1.663-1.712-1.646-5-0.001-9.999 0.001-14.999-0.001-0.162 0.001-0.324 0.014-0.481 0.051z"></path>
<path fill="#fff" d="M8.957 10.22c0.209-0.071 0.456-0.003 0.586 0.179 1.662 1.982 3.321 3.967 4.982 5.95 0.53 0.641 1.501 0.855 2.249 0.491 0.29-0.129 0.536-0.34 0.731-0.588 1.599-1.921 3.205-3.835 4.806-5.754 0.121-0.152 0.304-0.268 0.505-0.258 0.383 0.034 0.631 0.569 0.346 0.856-1.556 1.863-3.114 3.724-4.669 5.588-0.209 0.246-0.4 0.512-0.657 0.712-0.565 0.454-1.31 0.641-2.025 0.606-0.878-0.051-1.7-0.519-2.259-1.188-1.609-1.93-3.223-3.857-4.834-5.786-0.239-0.254-0.066-0.696 0.238-0.809z"></path>
<path fill="#fff" d="M11.402 16.85c0.367-0.113 0.711 0.305 0.617 0.652-0.061 0.159-0.191 0.276-0.296 0.406-1.097 1.301-2.192 2.603-3.287 3.905-0.2 0.266-0.689 0.299-0.868-0.006-0.123-0.176-0.135-0.431 0.018-0.593 1.161-1.383 2.327-2.761 3.487-4.145 0.084-0.104 0.199-0.186 0.331-0.219z"></path>
<path fill="#fff" d="M20.15 16.841c0.204-0.118 0.485-0.058 0.631 0.125 1.135 1.345 2.269 2.691 3.405 4.035 0.134 0.162 0.322 0.327 0.289 0.561-0.012 0.401-0.543 0.699-0.848 0.381-1.169-1.374-2.328-2.759-3.495-4.136-0.086-0.102-0.181-0.2-0.238-0.321-0.098-0.241 0.028-0.53 0.256-0.644z"></path>
</svg>
