<!-- Generated by IcoMoon.io -->
<svg version="1.1" xmlns="http://www.w3.org/2000/svg" width="32" height="32" viewBox="0 0 32 32">
<title>download-pdf</title>
<path fill="#ef3d2f" d="M14.726 0.49c2.657-0.219 5.37 0.252 7.79 1.374 3.18 1.46 5.832 4.027 7.397 7.157 1.229 2.435 1.788 5.199 1.621 7.92-0.137 2.355-0.823 4.676-1.989 6.727-1.027 1.812-2.422 3.413-4.073 4.681-1.709 1.314-3.694 2.269-5.791 2.775-2.807 0.682-5.804 0.567-8.547-0.338-3.078-1.008-5.82-3.011-7.718-5.635-1.295-1.766-2.202-3.813-2.649-5.957-0.551-2.646-0.407-5.436 0.431-8.006 0.893-2.761 2.584-5.254 4.809-7.116 2.443-2.059 5.534-3.333 8.72-3.582zM14.132 6.389c-0.247 0.115-0.446 0.339-0.501 0.609-0.161 0.674-0.131 1.378-0.067 2.064 0.133 1.184 0.414 2.346 0.717 3.498 0.022 0.094 0.031 0.196-0.010 0.287-0.522 1.287-1.144 2.531-1.783 3.763-0.428 0.835-0.872 1.662-1.339 2.476-0.079 0.13-0.136 0.293-0.287 0.358-0.658 0.353-1.332 0.678-1.949 1.1-0.683 0.464-1.343 0.988-1.841 1.653-0.213 0.301-0.407 0.635-0.451 1.008-0.027 0.256 0.065 0.555 0.314 0.671 0.301 0.141 0.592 0.346 0.936 0.36 0.629 0.052 1.187-0.331 1.631-0.734 1.149-1.082 1.945-2.466 2.752-3.804 0.046-0.072 0.145-0.074 0.217-0.107 0.589-0.186 1.18-0.367 1.779-0.514l0.046-0.029c1.367-0.344 2.743-0.665 4.136-0.889 0.156-0.011 0.314-0.078 0.469-0.052 1.166 0.634 2.416 1.128 3.718 1.394 0.483 0.087 0.977 0.148 1.468 0.089 0.324-0.043 0.641-0.226 0.792-0.524 0.209-0.399 0.224-0.874 0.152-1.311-0.101-0.361-0.428-0.601-0.766-0.722-0.681-0.246-1.418-0.268-2.135-0.27-0.797-0.001-1.593 0.070-2.384 0.166-0.137 0.017-0.293 0.084-0.419-0.002-0.313-0.186-0.625-0.373-0.914-0.593-0.476-0.352-0.868-0.799-1.238-1.258-0.667-0.851-1.193-1.809-1.564-2.824 0.094-0.325 0.143-0.661 0.199-0.994 0.143-0.936 0.274-1.875 0.337-2.819 0.001-0.484 0.074-0.998-0.139-1.452-0.147-0.346-0.432-0.686-0.829-0.725-0.349-0.014-0.726-0.051-1.044 0.127z"></path>
<path fill="#ef3d2f" d="M14.822 7.257c0.010-0.151 0.045-0.298 0.094-0.44 0.281 0.060 0.382 0.358 0.459 0.599 0.262 1.007 0.239 2.118-0.229 3.063-0.023-0.005-0.068-0.015-0.091-0.020-0.223-1.049-0.321-2.131-0.232-3.202z"></path>
<path fill="#ef3d2f" d="M14.881 14.39c0.026-0.078 0.072-0.146 0.118-0.214 0.641 1.199 1.534 2.271 2.62 3.091-0.102 0.036-0.206 0.064-0.313 0.082-1.529 0.303-3.033 0.726-4.496 1.259 0.756-1.372 1.511-2.751 2.071-4.218z"></path>
<path fill="#ef3d2f" d="M21.153 17.864c0.416-0.123 0.856-0.065 1.284-0.083 0.547-0.024 1.096 0.058 1.617 0.227 0.212 0.076 0.458 0.238 0.413 0.498-0.207 0.086-0.431 0.107-0.65 0.135-0.941-0.031-1.797-0.457-2.664-0.777z"></path>
<path fill="#ef3d2f" d="M9.725 20.916c0.237-0.185 0.454-0.392 0.672-0.598-0.433 0.721-0.922 1.411-1.467 2.052-0.348 0.383-0.713 0.769-1.178 1.009 0.032-0.108 0.072-0.214 0.129-0.312 0.475-0.825 1.144-1.516 1.844-2.152z"></path>
<path fill="#fff" d="M14.132 6.389c0.319-0.178 0.695-0.141 1.044-0.127 0.398 0.039 0.682 0.379 0.829 0.725 0.212 0.454 0.14 0.968 0.139 1.452-0.063 0.944-0.194 1.884-0.337 2.819-0.056 0.333-0.104 0.669-0.199 0.994 0.371 1.014 0.897 1.973 1.564 2.824 0.369 0.459 0.762 0.906 1.238 1.258 0.289 0.22 0.602 0.407 0.914 0.593 0.127 0.086 0.282 0.019 0.419 0.002 0.791-0.096 1.587-0.168 2.384-0.166 0.718 0.002 1.454 0.024 2.135 0.27 0.338 0.121 0.666 0.361 0.766 0.722 0.072 0.436 0.057 0.912-0.152 1.311-0.151 0.297-0.468 0.481-0.792 0.524-0.491 0.059-0.985-0.002-1.468-0.089-1.302-0.266-2.553-0.759-3.718-1.394-0.154-0.026-0.313 0.041-0.469 0.052-1.393 0.224-2.768 0.546-4.136 0.889l-0.046 0.029c-0.599 0.147-1.191 0.328-1.779 0.514-0.072 0.032-0.171 0.035-0.217 0.107-0.807 1.339-1.604 2.723-2.752 3.804-0.444 0.403-1.002 0.786-1.631 0.734-0.344-0.014-0.634-0.219-0.936-0.36-0.249-0.116-0.341-0.415-0.314-0.671 0.044-0.372 0.238-0.706 0.451-1.008 0.499-0.665 1.158-1.189 1.841-1.653 0.617-0.422 1.292-0.747 1.949-1.1 0.151-0.065 0.208-0.227 0.287-0.358 0.467-0.814 0.911-1.641 1.339-2.476 0.638-1.232 1.261-2.476 1.783-3.763 0.041-0.091 0.032-0.193 0.010-0.287-0.303-1.151-0.584-2.313-0.717-3.498-0.064-0.686-0.094-1.389 0.067-2.064 0.056-0.271 0.254-0.494 0.501-0.609zM14.822 7.257c-0.089 1.071 0.009 2.153 0.232 3.202 0.023 0.005 0.069 0.015 0.091 0.020 0.469-0.946 0.492-2.056 0.229-3.063-0.077-0.241-0.178-0.539-0.459-0.599-0.049 0.143-0.084 0.289-0.094 0.44zM14.881 14.39c-0.559 1.467-1.314 2.846-2.071 4.218 1.464-0.532 2.967-0.956 4.496-1.259 0.106-0.018 0.211-0.046 0.313-0.082-1.086-0.82-1.979-1.892-2.62-3.091-0.046 0.068-0.092 0.136-0.118 0.214zM21.153 17.864c0.866 0.32 1.723 0.746 2.664 0.777 0.219-0.028 0.443-0.049 0.65-0.135 0.045-0.26-0.201-0.422-0.413-0.498-0.521-0.169-1.069-0.251-1.617-0.227-0.428 0.018-0.867-0.040-1.284 0.083zM9.725 20.916c-0.701 0.636-1.369 1.327-1.844 2.152-0.057 0.098-0.097 0.204-0.129 0.312 0.466-0.24 0.83-0.626 1.178-1.009 0.546-0.641 1.034-1.331 1.467-2.052-0.218 0.205-0.435 0.413-0.672 0.598z"></path>
</svg>
