<!-- Generated by IcoMoon.io -->
<svg version="1.1" xmlns="http://www.w3.org/2000/svg" width="32" height="32" viewBox="0 0 32 32">
<title>edit-white</title>
<path fill="#fff" d="M25.126 2.185c0.819-0.807 2.262-0.831 3.097-0.036 0.556 0.549 1.106 1.105 1.661 1.656 0.27 0.261 0.489 0.582 0.61 0.939 0.005 0.644 0.008 1.289-0.001 1.933-0.079 0.214-0.224 0.399-0.378 0.565-0.376 0.379-0.758 0.751-1.129 1.133-1.687-1.658-3.341-3.351-5.031-5.005 0.374-0.411 0.781-0.791 1.172-1.185z"></path>
<path fill="#fff" d="M12.56 14.747c3.487-3.508 6.996-6.996 10.495-10.493 1.669 1.669 3.335 3.34 5.010 5.002-0.049 0.11-0.152 0.179-0.231 0.266-3.388 3.384-6.777 6.768-10.164 10.152-0.026 0.019-0.079 0.057-0.105 0.076-1.664-1.672-3.334-3.337-5.005-5.003z"></path>
<path fill="#fff" d="M2.367 8.863c0.462-0.242 0.992-0.331 1.51-0.326 4.059 0.003 8.117-0.004 12.176 0.003-1.079 1.078-2.159 2.155-3.238 3.235-2.696 0.002-5.393 0-8.089 0.001 0.001 5.146 0.001 10.291 0.001 15.437 5.15-0.001 10.3 0.002 15.45-0.001-0.006-2.444 0-4.888-0.003-7.332 1.080-1.080 2.157-2.163 3.242-3.236-0.001 3.703 0 7.406 0 11.108 0.017 0.584-0.012 1.189-0.273 1.724-0.222 0.501-0.686 0.953-1.262 0.96-6.064-0.001-12.129 0-18.194 0-0.564-0.017-1.073-0.336-1.468-0.719-0.382-0.394-0.701-0.902-0.718-1.465 0.001-5.938 0-11.874 0.001-17.812 0.004-0.231-0.025-0.469 0.054-0.692 0.125-0.396 0.449-0.699 0.811-0.885z"></path>
<path fill="#fff" d="M11.802 15.756c1.566 1.669 3.119 3.351 4.69 5.016-1.564 0.017-3.128 0.007-4.692 0.006 0.003-1.674 0-3.348 0.002-5.021z"></path>
</svg>
