<!-- Generated by IcoMoon.io -->
<svg version="1.1" xmlns="http://www.w3.org/2000/svg" width="32" height="32" viewBox="0 0 32 32">
<title>edit-red</title>
<path fill="#ef6c69" d="M25.157 2.156c0.692-0.648 1.803-0.78 2.63-0.318 0.324 0.161 0.562 0.438 0.816 0.687 0.427 0.426 0.852 0.853 1.279 1.277 0.271 0.262 0.491 0.583 0.612 0.941 0.006 0.643 0.007 1.287 0 1.929-0.115 0.314-0.36 0.557-0.595 0.785-0.304 0.307-0.614 0.608-0.913 0.917-1.687-1.662-3.348-3.351-5.034-5.013 0.397-0.407 0.799-0.809 1.206-1.206z"></path>
<path fill="#ef6c69" d="M12.557 14.742c3.497-3.498 6.996-6.994 10.498-10.488 1.669 1.668 3.334 3.341 5.011 5.002-0.018 0.026-0.054 0.079-0.072 0.105-3.379 3.374-6.758 6.75-10.137 10.124-0.096 0.091-0.177 0.199-0.294 0.265-1.662-1.676-3.338-3.338-5.006-5.008z"></path>
<path fill="#ef6c69" d="M2.101 9.027c0.475-0.34 1.069-0.477 1.646-0.489 4.102 0.002 8.204-0.003 12.306 0.002-1.079 1.078-2.16 2.156-3.238 3.235-2.696 0.001-5.393 0-8.089 0.001 0.001 5.146 0.001 10.291 0.001 15.437 5.149-0.001 10.299 0.001 15.449-0.001-0.005-2.444 0-4.889-0.003-7.333 1.080-1.080 2.158-2.162 3.242-3.238 0 3.828-0.001 7.655 0.001 11.483 0.006 0.606-0.134 1.232-0.497 1.726-0.238 0.332-0.622 0.58-1.038 0.585-6.066-0.001-12.133-0.001-18.198-0.001-0.592-0.022-1.123-0.366-1.524-0.78-0.352-0.386-0.644-0.871-0.657-1.406 0.001-6.063 0-12.126 0.001-18.189 0.010-0.419 0.267-0.795 0.599-1.033z"></path>
<path fill="#ef6c69" d="M11.803 15.761c1.57 1.664 3.118 3.349 4.69 5.011-1.564 0.016-3.128 0.006-4.692 0.005 0.002-1.672-0.001-3.344 0.002-5.016z"></path>
</svg>
