<!-- Generated by IcoMoon.io -->
<svg version="1.1" xmlns="http://www.w3.org/2000/svg" width="32" height="32" viewBox="0 0 32 32">
<title>edit-negative</title>
<path fill="#43abc8" d="M4.597 2.045c0.194-0.033 0.391-0.045 0.588-0.046 7.231 0.001 14.463 0 21.693 0.001 0.831-0.002 1.657 0.345 2.234 0.944 0.564 0.574 0.891 1.374 0.887 2.179 0 7.042 0 14.084 0 21.126-0.003 0.483 0.029 0.976-0.109 1.446-0.336 1.309-1.602 2.301-2.955 2.303-7.27 0.003-14.54 0.001-21.81 0.001-0.791 0.003-1.577-0.31-2.149-0.857-0.618-0.579-0.98-1.419-0.976-2.266 0-7.252 0-14.504 0-21.756-0.002-0.804 0.323-1.602 0.886-2.176 0.456-0.472 1.065-0.789 1.711-0.901zM23.27 5.139c-0.396 0.316-0.722 0.708-1.093 1.051 0.118 0.153 0.265 0.28 0.401 0.418 1.162 1.165 2.334 2.319 3.491 3.489 0.283-0.289 0.573-0.572 0.859-0.86 0.136-0.158 0.313-0.325 0.319-0.546-0.003-0.463 0.006-0.925-0.004-1.387-0.057-0.268-0.233-0.496-0.413-0.697-0.392-0.397-0.792-0.789-1.186-1.186-0.125-0.126-0.255-0.251-0.408-0.344-0.588-0.372-1.403-0.35-1.966 0.061zM13.329 15.018c1.296 1.303 2.597 2.6 3.901 3.895 2.71-2.708 5.42-5.416 8.139-8.114-1.29-1.307-2.602-2.594-3.895-3.899-2.719 2.702-5.423 5.419-8.145 8.118zM5.253 10.571c-0.285 0.193-0.509 0.511-0.499 0.866 0 4.667 0.001 9.334-0.001 14-0.011 0.458 0.246 0.877 0.558 1.193 0.316 0.311 0.734 0.564 1.19 0.554 4.688-0.002 9.375 0.001 14.063-0.001 0.386 0 0.722-0.271 0.902-0.596 0.218-0.364 0.284-0.792 0.296-1.21-0.001-2.961 0.001-5.921-0.001-8.883-0.849 0.829-1.681 1.675-2.523 2.511-0.002 1.893-0.002 3.786 0 5.679-1.286 0.029-2.574 0.004-3.861 0.012-2.694-0.002-5.388 0.005-8.081-0.003l-0.029-0.021c-0.019-3.979 0.006-7.959-0.013-11.939 2.093-0.023 4.186-0.001 6.279-0.011 0.831-0.838 1.674-1.662 2.5-2.504-3.156-0.001-6.312 0.001-9.467-0.001-0.457-0.002-0.929 0.092-1.313 0.352zM12.742 15.816c-0.006 1.296 0 2.593-0.002 3.889 1.215 0.004 2.431 0.004 3.646 0-1.219-1.292-2.422-2.599-3.643-3.889z"></path>
<path fill="#fff" d="M23.27 5.139c0.563-0.411 1.378-0.434 1.966-0.061 0.153 0.093 0.283 0.218 0.408 0.344 0.394 0.396 0.793 0.788 1.186 1.186 0.179 0.201 0.356 0.429 0.413 0.697 0.009 0.462 0.001 0.924 0.004 1.387-0.006 0.221-0.183 0.389-0.319 0.546-0.286 0.287-0.576 0.571-0.859 0.86-1.157-1.17-2.329-2.324-3.491-3.489-0.136-0.138-0.282-0.264-0.401-0.417 0.371-0.343 0.698-0.736 1.093-1.051z"></path>
<path fill="#fff" d="M13.329 15.018c2.722-2.699 5.426-5.416 8.145-8.118 1.293 1.305 2.605 2.591 3.895 3.899-2.719 2.698-5.429 5.406-8.139 8.114-1.304-1.295-2.605-2.592-3.901-3.895z"></path>
<path fill="#fff" d="M5.253 10.571c0.384-0.261 0.856-0.354 1.313-0.352 3.156 0.001 6.311-0.001 9.467 0.001-0.826 0.841-1.669 1.666-2.5 2.504-2.092 0.010-4.186-0.012-6.279 0.011 0.019 3.979-0.006 7.96 0.013 11.939l0.029 0.021c2.693 0.008 5.387 0.001 8.081 0.003 1.287-0.008 2.575 0.017 3.861-0.012-0.002-1.893-0.002-3.786 0-5.679 0.842-0.836 1.674-1.682 2.523-2.511 0.002 2.961 0 5.922 0.001 8.883-0.012 0.418-0.078 0.846-0.296 1.21-0.181 0.326-0.517 0.596-0.902 0.596-4.688 0.003-9.375-0.001-14.063 0.001-0.456 0.009-0.874-0.244-1.19-0.554-0.312-0.316-0.568-0.735-0.558-1.193 0.002-4.666 0.001-9.333 0.001-14-0.011-0.355 0.214-0.673 0.499-0.866z"></path>
<path fill="#fff" d="M12.742 15.816c1.221 1.289 2.424 2.597 3.643 3.889-1.215 0.004-2.431 0.004-3.646 0 0.002-1.296-0.003-2.593 0.002-3.889z"></path>
</svg>
