<!-- Generated by IcoMoon.io -->
<svg version="1.1" xmlns="http://www.w3.org/2000/svg" width="32" height="32" viewBox="0 0 32 32">
<title>edit-black</title>
<path d="M25.638 1.82c0.833-0.443 1.943-0.305 2.619 0.361 0.543 0.54 1.084 1.083 1.627 1.623 0.268 0.263 0.494 0.583 0.608 0.944 0.014 0.584-0.001 1.168 0.007 1.752 0.028 0.268-0.169 0.481-0.324 0.674-0.391 0.407-0.799 0.797-1.193 1.201-1.682-1.667-3.348-3.349-5.031-5.016 0.343-0.354 0.696-0.697 1.043-1.048 0.189-0.194 0.402-0.367 0.643-0.492z"></path>
<path d="M12.557 14.742c3.496-3.499 6.996-6.994 10.498-10.489 1.671 1.67 3.339 3.344 5.016 5.008-0.597 0.649-1.246 1.252-1.863 1.883-2.7 2.697-5.401 5.394-8.101 8.092-0.177 0.174-0.346 0.356-0.532 0.52-1.671-1.673-3.344-3.343-5.017-5.014z"></path>
<path d="M2.092 9.034c0.494-0.358 1.117-0.494 1.718-0.496 4.081 0.002 8.162-0.002 12.243 0.002-1.079 1.080-2.16 2.157-3.238 3.236-2.696 0.002-5.393-0.001-8.089 0.001 0.001 5.146 0.001 10.291 0.001 15.436 5.149-0.001 10.299 0.001 15.449-0.001-0.004-2.444 0-4.889-0.003-7.333 1.079-1.081 2.159-2.162 3.242-3.238-0.001 3.682 0 7.364 0 11.046 0.011 0.569 0.006 1.159-0.23 1.69-0.211 0.543-0.691 1.052-1.308 1.058-6.066 0.001-12.133 0.001-18.199 0-0.606-0.025-1.148-0.384-1.552-0.814-0.336-0.379-0.613-0.852-0.626-1.371 0.001-6.063-0.001-12.124 0.001-18.187 0.007-0.416 0.261-0.791 0.589-1.029z"></path>
<path d="M11.803 15.761c1.569 1.666 3.118 3.351 4.691 5.013-1.564 0.014-3.129 0.005-4.694 0.004 0.002-1.672-0.002-3.345 0.002-5.018z"></path>
</svg>
