<!-- Generated by IcoMoon.io -->
<svg version="1.1" xmlns="http://www.w3.org/2000/svg" width="32" height="32" viewBox="0 0 32 32">
<title>fax-black</title>
<path d="M15.494 3.002c3.667 0 7.336 0 11.004 0-0.001 0.665-0.001 1.33-0.001 1.995 0.667 0.006 1.333 0.004 2 0.001 0.001 0.996 0.001 1.992 0.001 2.989 0.422 0.020 0.849 0.132 1.189 0.392 0.492 0.357 0.813 0.949 0.812 1.56 0 4.374 0 8.747 0 13.121 0.012 1.026-0.909 1.947-1.935 1.938-5.015 0.005-10.031 0-15.046 0.003-0.051 0.251-0.131 0.512-0.324 0.693-0.181 0.198-0.446 0.278-0.701 0.328-0.002 0.559 0.006 1.117-0.001 1.675-0.021 0.703-0.66 1.316-1.364 1.302-1.957 0.001-3.915-0.001-5.872 0.001-0.292-0.003-0.598 0.026-0.875-0.088-0.499-0.188-0.873-0.683-0.887-1.22-0.004-0.335-0.016-0.671 0.011-1.005 0.073-0.595 0.584-1.102 1.179-1.172 0.5-0.052 1.006 0.035 1.504-0.039 0.221-0.040 0.286-0.279 0.332-0.465-1.047-0.028-2.095 0.005-3.143-0.011-1.008-0.019-1.895-0.928-1.887-1.938 0-4.373 0.002-8.746-0.001-13.119-0.003-0.909 0.71-1.747 1.601-1.908 0.296-0.054 0.599-0.033 0.899-0.035-0.044-0.687 0.137-1.394 0.571-1.936 0.375-0.478 0.904-0.839 1.497-0.983 0.409-0.109 0.837-0.081 1.256-0.081 0.732 0.007 1.449 0.334 1.943 0.873 0.543 0.559 0.792 1.357 0.738 2.127 1.167-0.001 2.333 0.005 3.5-0.003-0.001-1-0.001-2 0-3 0.666 0.008 1.332 0.001 1.999 0.005 0.002-0.667 0-1.333 0.001-2zM16.494 3.998c0 1.335 0 2.67 0 4.005 3.001-0.006 6.002 0.004 9.003-0.005-0.001-1.332-0.001-2.663 0-3.994-3.001-0.009-6.002-0.001-9.003-0.006zM5.831 6.264c-0.471 0.287-0.796 0.805-0.827 1.358-0.032 0.555-0.005 1.112-0.014 1.668 1.298-0.383 2.705-0.381 4.004-0.001-0.008-0.524 0.008-1.049-0.008-1.572-0.004-0.826-0.669-1.587-1.491-1.689-0.558-0.053-1.17-0.074-1.663 0.236zM14.493 5.998c0 0.668 0 1.336 0 2.004 0.334-0.001 0.667-0.006 1.001-0.005-0.001-0.666 0.001-1.333-0.001-1.999-0.333 0-0.666 0-0.999 0zM26.497 6.004c0 0.664 0 1.329 0 1.993 0.333 0 0.666 0.005 0.999 0.006 0.002-0.668 0.002-1.336 0-2.004-0.333-0.001-0.666-0.001-0.999 0.006zM2.895 9.204c-0.292 0.204-0.416 0.571-0.406 0.916-0.001 4.148 0.001 8.295-0.001 12.442-0.001 0.354-0.024 0.753 0.215 1.044 0.211 0.288 0.578 0.403 0.922 0.393 0.955 0.003 1.91 0.001 2.866 0.002 0.003-0.996-0.003-1.992 0.003-2.989-0.939-0.089-1.819-0.673-2.226-1.53-0.216-0.417-0.296-0.892-0.279-1.359 0.004-3.043 0.001-6.086 0.001-9.128-0.369 0.007-0.783-0.033-1.094 0.208zM10.492 9.002c0 2.876-0.001 5.751 0.001 8.627-0.010 0.403-0.129 0.805-0.336 1.151-0.033 0.098-0.141 0.069-0.221 0.079-0.166 0.919-0.869 1.694-1.744 1.999-0.23 0.067-0.466 0.111-0.702 0.154 0.001 0.995 0 1.99 0 2.985 0.999 0.004 1.997 0.009 2.996-0.001 0.037-0.468 0.398-0.936 0.888-0.961 0.396 0.001 0.793 0.009 1.189-0.002 0.519-0.023 0.942 0.471 0.954 0.969 4.952-0.004 9.906 0.005 14.859-0.004 0.359 0.016 0.735-0.128 0.939-0.435 0.207-0.291 0.183-0.664 0.183-1.003-0.003-4.144 0-8.289-0.001-12.433 0.004-0.299-0.074-0.617-0.297-0.828-0.179-0.193-0.442-0.261-0.691-0.309-0.027 1.44-0.004 2.881-0.012 4.321-0.001 3.231 0.001 6.461-0.001 9.692-5.001-0.009-10.003 0.002-15.004-0.005-0.001-4.666 0.001-9.333-0.001-13.999-1-0.001-2 0-3 0.004zM14.493 9.002c0 1.333 0 2.666 0 4 4.334-0.001 8.669-0.005 13.003 0 0.002-1.334 0.002-2.669 0-4.004-4.334 0.003-8.669-0.003-13.003 0.004zM4.989 10.357c0.002 2.422 0.001 4.844 0.001 7.267 0.003 0.386-0.025 0.782 0.090 1.157 0.202 0.643 0.808 1.142 1.482 1.198 0.374 0.031 0.758 0.038 1.125-0.047 0.616-0.157 1.122-0.683 1.254-1.306 0.070-0.329 0.047-0.666 0.051-1 0.001-2.423-0.004-4.846 0.002-7.269-1.283-0.457-2.721-0.457-4.005-0.001zM14.493 14.003c0 2.666 0 5.333 0 7.999 4.334-0.004 8.669-0.003 13.003 0 0.002-2.668 0.002-5.336 0-8.004-4.334 0.006-8.669-0.004-13.003 0.005zM11.512 24.018c-0.043 0.319-0.014 0.642-0.018 0.964 0.331 0.006 0.663 0.006 0.994 0.001 0.005-0.324 0.008-0.648-0.003-0.972-0.324-0.010-0.651-0.034-0.973 0.008zM7.501 24.997c0.034 0.617-0.35 1.242-0.949 1.43-0.579 0.172-1.194-0.005-1.782 0.103-0.174 0.049-0.274 0.229-0.274 0.402-0.008 0.274-0.037 0.558 0.039 0.825 0.082 0.209 0.329 0.248 0.527 0.243 1.938 0.001 3.876-0.001 5.813-0.002 0.17-0.006 0.371 0.008 0.498-0.128 0.113-0.114 0.119-0.284 0.121-0.433 0.002-0.472-0.006-0.944 0.002-1.416-0.253-0.049-0.517-0.128-0.697-0.324-0.201-0.179-0.28-0.446-0.326-0.702-0.991 0.004-1.981 0.006-2.971 0.001z"></path>
<path d="M15.494 9.498c3.667 0.008 7.336-0.002 11.004 0.005-0.001 0.998-0.001 1.996 0 2.994-3.668 0.006-7.336 0.004-11.004 0.001 0.001-1 0-2 0.001-3zM16.494 10.498c-0.001 0.334-0.001 0.668-0.001 1.001 3.001 0.002 6.001-0.001 9.002 0.002 0.001-0.335 0.001-0.669 0-1.004-3.001 0.004-6.001 0.002-9.001 0.001z"></path>
<path d="M15.493 15.002c0.668-0.006 1.334-0.003 2.001 0.001-0.001 0.665 0 1.329 0 1.994-0.667 0.012-1.334-0.003-2.001 0.001-0.001-0.665-0.001-1.331-0.001-1.996z"></path>
<path d="M18.495 14.998c0.667 0.011 1.334-0.009 2.001 0.006-0.002 0.666 0.001 1.333-0.001 1.999-0.667-0.004-1.333-0.004-1.999 0.001-0.001-0.669-0.001-1.337 0-2.006z"></path>
<path d="M21.496 14.998c0.666 0.005 1.332 0.003 1.999 0 0.001 0.668 0.001 1.337 0 2.005-0.667-0.009-1.333 0.004-1.999-0.006-0.001-0.666-0.001-1.333 0-1.999z"></path>
<path d="M24.496 15.003c0.666-0.011 1.333 0.002 2-0.006 0.001 0.668 0.001 1.335 0 2.002-0.667 0.009-1.333-0.009-2 0.003 0-0.666-0.001-1.333 0-1.999z"></path>
<path d="M15.494 17.999c3.667 0.003 7.335 0.002 11.002-0.001 0.001 1.001 0.001 2.003 0 3.004-3.668-0.004-7.335-0.001-11.002-0.002-0.001-1.001-0.001-2.001 0-3.001zM16.494 19.003c0 0.332 0 0.664 0 0.996 3.001 0.003 6.002 0.007 9.003-0.001-0.001-0.333 0-0.666-0.001-0.999-3.001 0.006-6.001-0.005-9.002 0.004z"></path>
</svg>
