<!-- Generated by IcoMoon.io -->
<svg version="1.1" xmlns="http://www.w3.org/2000/svg" width="32" height="32" viewBox="0 0 32 32">
<title>fax-red</title>
<path fill="#ef6c69" d="M15.494 3.002c3.668-0.002 7.336-0.001 11.003-0.001 0.003 0.666-0.003 1.331 0.003 1.996 0.666 0.009 1.331-0.003 1.997 0.003 0.001 0.996-0.001 1.992 0.001 2.989 0.422 0.011 0.846 0.133 1.186 0.389 0.491 0.356 0.811 0.944 0.814 1.554-0.003 4.399 0.002 8.798-0.002 13.197-0.029 0.999-0.931 1.872-1.931 1.871-5.018-0.003-10.036-0.003-15.054-0.001-0.044 0.532-0.484 0.977-1.019 1.017-0.006 0.559 0.002 1.117-0.003 1.676-0.020 0.703-0.657 1.316-1.361 1.306-2.107-0.002-4.216 0-6.323-0.001-0.667-0.015-1.266-0.586-1.312-1.252-0.013-0.312-0.006-0.624-0.004-0.936 0.016-0.646 0.554-1.222 1.193-1.3 0.496-0.043 0.998 0.029 1.492-0.032 0.221-0.039 0.309-0.271 0.33-0.468-0.793-0.023-1.588-0.004-2.381-0.011-0.412-0.008-0.836 0.046-1.236-0.082-0.797-0.235-1.401-1.016-1.401-1.851 0.001-4.398-0.001-8.796 0.001-13.194 0.031-0.829 0.648-1.588 1.448-1.802 0.341-0.103 0.701-0.061 1.052-0.071-0.047-0.688 0.137-1.396 0.571-1.938 0.388-0.492 0.938-0.862 1.553-0.994 0.372-0.094 0.758-0.064 1.138-0.069 0.736-0.008 1.467 0.306 1.972 0.842 0.563 0.559 0.825 1.373 0.769 2.158 1.167 0.005 2.334 0.006 3.501-0.001 0-0.998-0.002-1.997 0.001-2.995 0.666-0.009 1.333 0.006 1.999-0.005 0-0.665-0.002-1.33 0.001-1.995zM16.496 4.003c-0.003 1.331-0.003 2.664 0 3.995 3.001 0.005 6.001 0.006 9.002 0.001 0.001-1.332 0.001-2.664 0-3.996-3.001-0.004-6.001-0.006-9.002 0.001zM5.829 6.265c-0.472 0.289-0.797 0.809-0.827 1.364-0.028 0.553-0.008 1.106-0.011 1.659 1.298-0.381 2.701-0.376 4-0.001-0.008-0.554 0.014-1.11-0.014-1.664-0.043-0.813-0.733-1.532-1.544-1.604-0.539-0.043-1.129-0.057-1.604 0.244zM14.494 6.003c-0.002 0.665-0.002 1.33 0 1.995 0.333 0.006 0.666 0.006 0.999 0-0.001-0.665-0.001-1.33 0-1.995-0.333-0.006-0.666-0.006-0.999 0zM26.501 6.002c-0.004 0.666-0.004 1.331 0 1.996 0.332 0.005 0.664 0.004 0.997 0 0.001-0.666 0.001-1.331 0-1.996-0.333-0.004-0.666-0.005-0.997 0zM2.893 9.206c-0.292 0.205-0.416 0.571-0.405 0.917 0.001 4.251 0.001 8.502 0 12.754-0.002 0.286 0.066 0.589 0.274 0.799 0.215 0.24 0.546 0.329 0.859 0.323 0.956 0.003 1.913 0.002 2.869-0.002 0.001-0.996-0.002-1.991 0.001-2.987-0.987-0.088-1.902-0.737-2.285-1.656-0.184-0.403-0.236-0.853-0.219-1.293 0.002-3.020 0.001-6.041 0.001-9.061-0.371-0.002-0.786-0.037-1.096 0.205zM10.492 9.002c-0.002 2.875-0.001 5.751 0 8.626-0.005 0.436-0.158 0.858-0.376 1.231-0.059-0.003-0.119-0.006-0.178-0.010-0.162 0.916-0.857 1.689-1.724 2.003-0.236 0.070-0.479 0.116-0.721 0.158-0.005 0.996-0.003 1.992-0.001 2.988 1 0.004 2 0.010 3-0.003 0.025-0.511 0.471-1.010 1.006-0.962 0.417 0.021 0.834-0.011 1.251 0.010 0.432 0.098 0.762 0.515 0.767 0.957 4.933 0.001 9.867 0.001 14.8 0.001 0.363 0.017 0.753-0.095 0.974-0.401 0.272-0.348 0.203-0.813 0.211-1.224-0.002-3.917-0.002-7.833 0-11.75-0.009-0.398 0.059-0.841-0.184-1.188-0.177-0.271-0.492-0.41-0.807-0.439-0.024 1.042-0.004 2.085-0.010 3.127-0.001 3.624 0 7.249-0.001 10.874-5.001 0-10.003 0.001-15.004-0.001-0.004-4.665-0.001-9.33-0.001-13.995-1-0.006-2-0.006-3.001 0zM14.494 9.002c-0.002 1.332-0.002 2.663 0 3.995 4.334 0.007 8.669 0.004 13.004 0.001 0.001-1.332 0.001-2.665 0-3.998-4.334-0.004-8.669-0.005-13.004 0.001zM5.166 10.298c-0.065 0.030-0.196 0.037-0.176 0.141-0.002 2.541 0.001 5.082-0.001 7.623 0.001 0.34 0.039 0.692 0.206 0.996 0.276 0.525 0.829 0.895 1.424 0.928 0.492 0.027 1.024 0.043 1.466-0.213 0.563-0.309 0.919-0.939 0.903-1.581 0.004-2.613 0.004-5.226 0-7.839-1.225-0.426-2.587-0.454-3.823-0.054zM14.494 14.002c-0.002 2.665-0.002 5.33 0 7.995 4.334 0.006 8.669 0.005 13.004 0.001 0.001-2.666 0.001-5.332 0-7.997-4.334-0.003-8.669-0.006-13.004 0.001zM11.506 24.010c-0.023 0.324-0.018 0.649-0.004 0.973 0.328 0.006 0.657 0.006 0.986-0.001 0.008-0.324 0.011-0.648-0.002-0.971-0.326-0.019-0.653-0.018-0.979-0.001zM7.499 25.002c0.044 0.667-0.424 1.33-1.086 1.466-0.542 0.092-1.099-0.026-1.642 0.062-0.282 0.081-0.296 0.414-0.284 0.657 0.014 0.241-0.054 0.552 0.166 0.721 0.169 0.128 0.399 0.082 0.598 0.095 1.897-0.004 3.795 0.001 5.692-0.002 0.245 0.028 0.535-0.109 0.541-0.384 0.023-0.532-0.001-1.066 0.011-1.599-0.531-0.039-0.986-0.481-1.017-1.017-0.993-0.002-1.986-0.005-2.979 0.001z"></path>
<path fill="#ef6c69" d="M15.495 9.502c3.667-0.003 7.335-0.002 11.002-0.001 0.001 0.999 0.001 1.998 0 2.996-3.668 0.001-7.335 0.002-11.002-0.001-0.003-0.998-0.002-1.997 0-2.995zM16.496 10.502c-0.003 0.331-0.003 0.663 0 0.995 3.001 0.007 6.001 0.004 9.002 0.001 0.001-0.332 0.001-0.664 0-0.996-3.001-0.005-6.001-0.004-9.002 0.001z"></path>
<path fill="#ef6c69" d="M15.495 15.002c0.666-0.004 1.333-0.004 1.999 0-0.001 0.665-0.001 1.33 0 1.995-0.666 0.004-1.333 0.004-1.999 0-0.003-0.665-0.003-1.33 0-1.995z"></path>
<path fill="#ef6c69" d="M18.499 15.002c0.666-0.002 1.331-0.004 1.997 0.001-0.001 0.665-0.001 1.33 0 1.995-0.666 0.004-1.331 0.003-1.997 0.001-0.003-0.666-0.003-1.331 0-1.996z"></path>
<path fill="#ef6c69" d="M21.499 15.002c0.666-0.002 1.332-0.003 1.998 0.001 0.001 0.665 0.001 1.33 0 1.995-0.666 0.004-1.332 0.004-1.998 0.001-0.003-0.666-0.003-1.331 0-1.996z"></path>
<path fill="#ef6c69" d="M24.499 15.002c0.666-0.002 1.332-0.002 1.998 0 0.001 0.666 0.001 1.331 0 1.996-0.666 0.003-1.332 0.003-1.998 0-0.003-0.666-0.003-1.331 0-1.996z"></path>
<path fill="#ef6c69" d="M15.495 18.003c3.667-0.004 7.335-0.001 11.002-0.001 0.001 0.999 0.001 1.997 0 2.996-3.668 0.001-7.335 0.003-11.002-0.001-0.003-0.998-0.003-1.997 0-2.995zM16.496 19.003c-0.003 0.331-0.003 0.663 0 0.995 3.001 0.006 6.001 0.005 9.002 0.001 0.001-0.332 0.001-0.664 0-0.996-3.001-0.005-6.001-0.005-9.002 0.001z"></path>
</svg>
