<!-- Generated by IcoMoon.io -->
<svg version="1.1" xmlns="http://www.w3.org/2000/svg" width="32" height="32" viewBox="0 0 32 32">
<title>fax-white</title>
<path fill="#fff" d="M15.494 3.001c3.668 0 7.336-0.001 11.004 0.001 0.001 0.666-0.001 1.331 0.001 1.996 0.667 0.009 1.333-0.006 1.999 0.004 0.001 0.997 0 1.994 0.001 2.991 1.023-0.024 1.969 0.849 1.999 1.877 0.002 4.42 0.002 8.84 0 13.26-0.030 0.977-0.891 1.836-1.867 1.869-5.040 0.003-10.081 0.001-15.121 0.001-0.036 0.531-0.482 0.983-1.016 1.012-0.002 0.558 0.001 1.116-0.001 1.674-0.018 0.683-0.615 1.288-1.299 1.311-2.107 0.003-4.214-0.001-6.322 0.002-0.589 0.014-1.149-0.406-1.321-0.966-0.107-0.356-0.045-0.731-0.063-1.096-0.031-0.553 0.312-1.094 0.816-1.317 0.434-0.2 0.923-0.099 1.383-0.119 0.226-0.015 0.508 0.050 0.681-0.134 0.105-0.090 0.107-0.236 0.136-0.36-1.065-0.020-2.131 0.004-3.196-0.012-0.959-0.058-1.789-0.907-1.819-1.869-0.002-4.418-0.001-8.837-0.001-13.255 0.032-0.846 0.674-1.619 1.497-1.814 0.328-0.090 0.67-0.050 1.004-0.059-0.059-0.761 0.186-1.548 0.715-2.106 0.499-0.556 1.233-0.893 1.981-0.894 0.396 0.007 0.799-0.032 1.186 0.070 1.003 0.221 1.837 1.060 2.054 2.064 0.078 0.282 0.068 0.576 0.065 0.866 1.168 0.004 2.334 0.002 3.502 0-0.001-0.999-0.001-1.998 0-2.997 0.667-0.006 1.334 0.003 2.001-0.004-0.001-0.666-0.001-1.331 0-1.997zM16.494 4.002c-0.001 1.332-0.001 2.664 0 3.996 3.001 0.003 6.002 0.004 9.003 0 0-1.332 0.001-2.664 0-3.996-3.001-0.004-6.003-0.003-9.003 0zM5.908 6.219c-0.51 0.277-0.873 0.818-0.904 1.402-0.031 0.556-0.006 1.115-0.014 1.672 1.296-0.389 2.704-0.381 4.002-0.003-0.007-0.515 0.007-1.031-0.007-1.545 0.009-0.857-0.696-1.65-1.551-1.724-0.511-0.037-1.063-0.059-1.526 0.199zM14.493 6.002c0 0.666 0 1.331 0 1.996 0.334 0.004 0.667 0.004 1.001 0-0.001-0.666-0.001-1.331 0-1.996-0.334-0.004-0.667-0.004-1.001 0zM26.499 6.002c-0.001 0.666-0.001 1.331 0 1.996 0.333 0.004 0.666 0.004 0.999 0 0.001-0.666 0.001-1.331 0-1.996-0.333-0.004-0.666-0.004-0.999 0zM2.929 9.181c-0.292 0.189-0.442 0.538-0.439 0.879-0.003 4.273 0 8.544-0.002 12.817-0.011 0.346 0.114 0.711 0.405 0.917 0.224 0.177 0.518 0.209 0.794 0.207 0.934-0.005 1.869 0.006 2.804-0.003 0-0.996-0.002-1.993 0.001-2.989-0.769-0.071-1.508-0.471-1.964-1.098-0.37-0.491-0.565-1.109-0.541-1.723 0.005-3.062 0-6.124 0.002-9.186-0.357-0.001-0.752-0.038-1.061 0.179zM10.492 9.002c0 2.875-0.001 5.75 0.001 8.626-0.004 0.44-0.162 0.864-0.38 1.242-0.058-0.010-0.116-0.020-0.173-0.031-0.119 0.668-0.51 1.272-1.064 1.661-0.399 0.308-0.892 0.442-1.384 0.509-0.001 0.996 0 1.993 0 2.989 1.001 0 2.003 0.011 3.005-0.004 0.014-0.512 0.472-1.009 1.002-0.962 0.334 0.011 0.669 0.010 1.003 0.001 0.533-0.059 1.019 0.446 1.008 0.968 4.956-0.002 9.912 0.002 14.867-0.002 0.359 0.014 0.735-0.129 0.939-0.436 0.182-0.253 0.188-0.576 0.183-0.876-0.002-4.188 0.001-8.376-0.001-12.564 0.005-0.284-0.066-0.581-0.267-0.791-0.181-0.208-0.454-0.306-0.723-0.331-0.024 1.249-0.004 2.5-0.010 3.75-0.001 3.416 0 6.832-0.001 10.248-5.002 0.004-10.004 0.001-15.005 0-0.001-4.666-0.001-9.331 0-13.997-1.001 0-2.001-0.004-3.001 0.001zM14.493 9.002c0 1.332 0 2.664 0 3.996 4.335 0.002 8.67 0.003 13.005 0.001 0.001-1.332 0.001-2.665 0-3.998-4.335-0.002-8.67-0.005-13.005 0.001zM4.986 10.365c0.009 2.42 0.001 4.84 0.004 7.26 0.003 0.407-0.030 0.829 0.111 1.22 0.227 0.631 0.843 1.105 1.517 1.141 0.508 0.029 1.059 0.043 1.508-0.236 0.542-0.316 0.877-0.933 0.863-1.558 0.004-2.613 0.004-5.227 0-7.84-1.285-0.442-2.724-0.461-4.003 0.013zM14.493 14.002c0 2.666 0 5.331 0 7.996 4.335 0.002 8.67 0.005 13.005 0.001 0.001-2.666 0.001-5.332 0-7.997-4.335-0.003-8.67-0.002-13.005 0.001zM11.506 24.011c-0.024 0.323-0.015 0.648-0.007 0.971 0.329 0.006 0.659 0.006 0.989 0 0.006-0.324 0.011-0.648-0.003-0.971-0.326-0.019-0.653-0.018-0.979-0.001zM7.494 25.001c0.055 0.667-0.421 1.33-1.081 1.466-0.543 0.093-1.1-0.025-1.643 0.061-0.254 0.073-0.3 0.367-0.282 0.594 0.019 0.26-0.071 0.597 0.164 0.784 0.169 0.129 0.399 0.082 0.598 0.094 1.919-0.006 3.837 0.003 5.756-0.004 0.232 0.021 0.476-0.144 0.479-0.391 0.019-0.531-0.002-1.063 0.011-1.594-0.531-0.030-0.992-0.479-1.015-1.014-0.995-0.001-1.991-0.001-2.986 0.001z"></path>
<path fill="#fff" d="M15.494 9.502c3.668-0.004 7.336-0.002 11.004 0 0 0.999 0.001 1.998 0 2.996-3.668 0.001-7.336 0.004-11.004 0-0.001-0.999-0.001-1.998 0-2.996zM16.494 10.501c-0.001 0.332-0.001 0.665 0 0.997 3.001 0.003 6.002 0.004 9.003 0 0-0.332 0-0.664 0-0.996-3.001-0.004-6.003-0.002-9.003-0.001z"></path>
<path fill="#fff" d="M15.494 15.002c0.667-0.006 1.334-0.002 2.001 0-0.001 0.665-0.001 1.331 0 1.996-0.667 0.002-1.334 0.006-2.001 0-0.001-0.666-0.001-1.331 0-1.996z"></path>
<path fill="#fff" d="M18.495 15.002c0.667-0.004 1.334-0.005 2 0 0 0.665 0 1.331 0.001 1.996-0.667 0.006-1.334 0.002-2.001 0-0.001-0.666-0.001-1.331 0-1.996z"></path>
<path fill="#fff" d="M21.496 15.001c0.666-0.004 1.333-0.004 2 0.001-0.001 0.666-0.001 1.331-0.001 1.996-0.666 0.002-1.333 0.006-2 0-0.001-0.666-0.001-1.331 0.001-1.997z"></path>
<path fill="#fff" d="M24.498 15.002c0.666-0.002 1.333-0.002 2 0 0.001 0.666 0.001 1.331-0.001 1.996-0.666 0.004-1.333 0.004-1.999 0-0.003-0.666-0.003-1.331 0-1.996z"></path>
<path fill="#fff" d="M15.494 18.002c3.668-0.003 7.336-0.003 11.004 0 0 0.999 0.001 1.997 0 2.996-3.668 0.005-7.336 0.001-11.004 0-0.001-0.999-0.001-1.997 0-2.996zM16.494 19.002c-0.001 0.332-0.001 0.664 0 0.996 3.001 0.003 6.002 0.004 9.003 0 0-0.332 0-0.664 0-0.996-3.001-0.003-6.003-0.003-9.003 0z"></path>
</svg>
