<!-- Generated by IcoMoon.io -->
<svg version="1.1" xmlns="http://www.w3.org/2000/svg" width="32" height="32" viewBox="0 0 32 32">
<title>home-black</title>
<path d="M15.896 2.066c0.111-0.002 0.222-0.001 0.333-0.004 5.112 5.104 10.226 10.205 15.339 15.307 0.108 0.119 0.284 0.216 0.25 0.404-1.864 0.002-3.729-0.001-5.594 0.001 0.001 4.054 0 8.108 0.001 12.162-2.371 0.001-4.741 0.001-7.111 0-0.001-2.365 0.001-4.729-0.001-7.094-2.2 0-4.401 0-6.601 0-0.002 2.365 0.001 4.729-0.001 7.094-2.371 0.001-4.741 0.001-7.111-0.001 0-4.054-0.001-8.108 0-12.161-1.747-0.003-3.494 0.001-5.241-0.001 5.244-5.238 10.496-10.467 15.738-15.707z"></path>
</svg>
