<!-- Generated by IcoMoon.io -->
<svg version="1.1" xmlns="http://www.w3.org/2000/svg" width="32" height="32" viewBox="0 0 32 32">
<title>home-white</title>
<path fill="#fff" d="M15.854 2.111c0.095-0.099 0.254-0.030 0.376-0.048 5.123 5.113 10.247 10.224 15.37 15.337 0.101 0.109 0.262 0.198 0.216 0.373-1.863 0.001-3.727-0.001-5.591 0.001 0.001 4.054-0.001 8.108 0.001 12.161-2.371 0.003-4.742 0.001-7.113 0.001 0-2.365 0.001-4.73 0-7.095-2.201 0-4.401 0-6.602 0-0.001 2.365 0 4.73-0.001 7.095-2.371-0.001-4.741 0.001-7.112-0.001 0.001-4.054 0-8.108 0.001-12.161-1.746-0.004-3.491 0.004-5.237-0.005 5.229-5.221 10.462-10.438 15.691-15.658z"></path>
</svg>
