<!-- Generated by IcoMoon.io -->
<svg version="1.1" xmlns="http://www.w3.org/2000/svg" width="32" height="32" viewBox="0 0 32 32">
<title>home-red</title>
<path fill="#ef6c69" d="M15.901 2.063c0.109 0.001 0.219 0.001 0.329-0.001 5.111 5.103 10.226 10.204 15.338 15.306 0.109 0.118 0.282 0.216 0.252 0.404-1.865 0.001-3.731-0.001-5.596 0.001 0.001 4.054 0 8.108 0.001 12.163-2.371 0.001-4.741 0-7.112 0.001 0-2.366 0.001-4.731 0-7.096-2.201 0.001-4.401 0.001-6.602 0.001-0.001 2.365 0 4.73-0.001 7.095-2.371-0.001-4.741 0.001-7.112-0.001 0.001-4.054 0-8.108 0.001-12.163-1.747-0.001-3.494 0-5.241-0.001 5.246-5.238 10.497-10.471 15.742-15.71z"></path>
</svg>
