<!-- Generated by IcoMoon.io -->
<svg version="1.1" xmlns="http://www.w3.org/2000/svg" width="32" height="32" viewBox="0 0 32 32">
<title>location-white</title>
<path fill="#fff" d="M14.81 1.826c1.83-0.258 3.741 0.1 5.349 1.013 1.726 0.968 3.099 2.551 3.802 4.402 0.902 2.319 0.704 5.031-0.525 7.194-0.623 1.094-1.321 2.143-1.975 3.218-1.006 1.617-2.012 3.235-3.017 4.853 1.526 0.219 3.066 0.597 4.396 1.402 0.677 0.424 1.331 0.994 1.585 1.777 0.207 0.595 0.074 1.267-0.275 1.781-0.396 0.582-0.976 1.011-1.582 1.355-1.203 0.654-2.544 1.005-3.891 1.212-1.513 0.221-3.054 0.249-4.576 0.104-1.406-0.145-2.809-0.436-4.107-1.007-0.779-0.351-1.534-0.811-2.076-1.484-0.386-0.483-0.6-1.129-0.464-1.744 0.126-0.642 0.553-1.182 1.050-1.587 0.92-0.746 2.055-1.169 3.189-1.465 0.543-0.142 1.096-0.239 1.651-0.326-1.293-2.164-2.586-4.328-3.879-6.491-0.294-0.5-0.604-0.991-0.883-1.499-0.859-1.475-1.251-3.214-1.117-4.916 0.142-1.92 0.969-3.777 2.292-5.176 1.321-1.413 3.133-2.36 5.052-2.617zM15.287 5.551c-1.025 0.154-2.004 0.636-2.731 1.379-0.96 0.938-1.486 2.296-1.427 3.636 0.042 1.212 0.559 2.404 1.426 3.254 0.716 0.732 1.679 1.213 2.688 1.373 0.976 0.151 1.997 0.004 2.884-0.431 1.046-0.504 1.9-1.398 2.353-2.467 0.524-1.207 0.524-2.629 0-3.836-0.435-1.027-1.24-1.893-2.229-2.406-0.903-0.475-1.956-0.647-2.965-0.5zM10.284 24.35c-0.595 0.277-1.192 0.613-1.605 1.136-0.255 0.316-0.399 0.755-0.248 1.15 0.219 0.551 0.711 0.932 1.2 1.236 1.174 0.693 2.522 1.026 3.859 1.229 1.614 0.224 3.259 0.225 4.874 0.012 1.233-0.178 2.466-0.474 3.584-1.040 0.573-0.307 1.154-0.683 1.48-1.265 0.175-0.304 0.18-0.689 0.022-1.001-0.271-0.552-0.801-0.915-1.322-1.209-1.308-0.701-2.783-1.021-4.246-1.193-0.54 0.868-1.080 1.736-1.62 2.605-0.114 0.212-0.395 0.308-0.613 0.204-0.161-0.065-0.237-0.229-0.321-0.367-0.482-0.808-0.964-1.616-1.447-2.423-1.231 0.152-2.459 0.421-3.597 0.926z"></path>
</svg>
