<!-- Generated by IcoMoon.io -->
<svg version="1.1" xmlns="http://www.w3.org/2000/svg" width="32" height="32" viewBox="0 0 32 32">
<title>location-red</title>
<path fill="#ef6c69" d="M14.434 1.886c1.809-0.336 3.726-0.069 5.369 0.763 1.876 0.936 3.383 2.586 4.139 4.542 0.852 2.155 0.758 4.659-0.248 6.746-0.328 0.691-0.752 1.329-1.152 1.979-1.366 2.197-2.732 4.393-4.098 6.589 1.526 0.219 3.064 0.596 4.394 1.402 0.694 0.433 1.366 1.023 1.604 1.834 0.196 0.609 0.029 1.286-0.34 1.795-0.511 0.698-1.263 1.173-2.035 1.538-1.329 0.607-2.776 0.912-4.224 1.061-1.51 0.145-3.038 0.118-4.54-0.097-1.406-0.214-2.813-0.579-4.055-1.289-0.762-0.454-1.527-1.076-1.77-1.968-0.209-0.756 0.113-1.558 0.639-2.105 0.531-0.565 1.215-0.962 1.921-1.27 1.051-0.456 2.177-0.714 3.307-0.883-1.324-2.216-2.648-4.433-3.973-6.649-0.351-0.591-0.716-1.175-1.029-1.787-0.692-1.374-0.996-2.938-0.876-4.47 0.14-1.891 0.944-3.721 2.231-5.111 1.241-1.354 2.928-2.296 4.737-2.623zM15.289 5.551c-1.026 0.154-2.008 0.636-2.733 1.381-0.884 0.864-1.402 2.085-1.429 3.319-0.032 1.069 0.306 2.143 0.939 3.004 0.637 0.87 1.568 1.523 2.609 1.813 1.123 0.319 2.362 0.218 3.416-0.288 1.177-0.553 2.11-1.601 2.525-2.834 0.37-1.080 0.343-2.291-0.078-3.352-0.45-1.156-1.361-2.124-2.489-2.641-0.854-0.401-1.827-0.536-2.76-0.401zM9.949 24.512c-0.56 0.298-1.131 0.666-1.44 1.24-0.189 0.334-0.182 0.765 0.019 1.092 0.34 0.574 0.923 0.946 1.5 1.249 1.329 0.659 2.806 0.958 4.272 1.103 1.608 0.14 3.239 0.088 4.828-0.208 1.19-0.238 2.389-0.585 3.407-1.265 0.422-0.292 0.839-0.663 0.995-1.168 0.142-0.501-0.159-0.994-0.512-1.326-0.503-0.473-1.131-0.784-1.766-1.039-1.078-0.422-2.222-0.654-3.369-0.786-0.542 0.869-1.081 1.739-1.622 2.608-0.113 0.207-0.386 0.302-0.601 0.206-0.146-0.055-0.227-0.194-0.302-0.322-0.491-0.826-0.984-1.649-1.477-2.473-1.352 0.17-2.709 0.471-3.932 1.089z"></path>
</svg>
