<!-- Generated by IcoMoon.io -->
<svg version="1.1" xmlns="http://www.w3.org/2000/svg" width="32" height="32" viewBox="0 0 32 32">
<title>location-black</title>
<path d="M11.027 3.333c1.42-1.021 3.162-1.584 4.911-1.587 1.654-0.014 3.307 0.472 4.691 1.377 1.554 1.008 2.769 2.533 3.393 4.279 0.645 1.779 0.666 3.776 0.062 5.57-0.244 0.756-0.621 1.459-1.037 2.133-1.534 2.466-3.069 4.933-4.602 7.4 1.525 0.22 3.064 0.596 4.393 1.402 0.696 0.434 1.371 1.027 1.606 1.842 0.193 0.608 0.026 1.281-0.342 1.788-0.511 0.697-1.261 1.172-2.031 1.536-1.33 0.609-2.779 0.914-4.228 1.064-1.526 0.146-3.070 0.118-4.587-0.105-1.519-0.237-3.052-0.646-4.351-1.496-0.588-0.406-1.153-0.923-1.386-1.618-0.193-0.546-0.106-1.165 0.176-1.664 0.337-0.603 0.89-1.051 1.473-1.403 1.273-0.748 2.729-1.107 4.176-1.326-1.369-2.293-2.739-4.585-4.109-6.878-0.432-0.731-0.893-1.453-1.2-2.248-0.684-1.719-0.78-3.664-0.271-5.442 0.522-1.852 1.696-3.509 3.264-4.623zM15.286 5.552c-1.279 0.184-2.464 0.905-3.224 1.949-0.605 0.827-0.941 1.848-0.936 2.874-0.005 1.277 0.516 2.552 1.431 3.445 0.848 0.867 2.041 1.383 3.251 1.426 0.783 0.032 1.573-0.127 2.28-0.466 1.047-0.492 1.906-1.375 2.371-2.435 0.557-1.243 0.553-2.723-0.011-3.963-0.473-1.064-1.343-1.945-2.401-2.43-0.855-0.401-1.828-0.535-2.761-0.399zM10.329 24.33c-0.562 0.255-1.117 0.564-1.539 1.022-0.326 0.344-0.543 0.861-0.344 1.323 0.301 0.671 0.956 1.086 1.582 1.418 1.562 0.769 3.312 1.061 5.036 1.157 1.7 0.074 3.42-0.049 5.067-0.494 0.939-0.26 1.877-0.613 2.654-1.216 0.361-0.297 0.724-0.677 0.777-1.164 0.038-0.478-0.268-0.901-0.607-1.206-0.546-0.483-1.218-0.799-1.896-1.053-1.022-0.376-2.097-0.589-3.177-0.712-0.551 0.881-1.094 1.766-1.649 2.645-0.169 0.273-0.617 0.271-0.783-0.004-0.53-0.87-1.045-1.749-1.572-2.621-1.214 0.15-2.426 0.414-3.551 0.906z"></path>
</svg>
