<!-- Generated by IcoMoon.io -->
<svg version="1.1" xmlns="http://www.w3.org/2000/svg" width="32" height="32" viewBox="0 0 32 32">
<title>mail-white</title>
<path fill="#fff" d="M5.267 4.456c7.077-0.009 14.156-0.001 21.233-0.004 0.852-0.019 1.707 0.269 2.376 0.797 0.902 0.689 1.472 1.798 1.484 2.936 0 5.106 0 10.213 0.001 15.318 0.021 0.769-0.182 1.547-0.598 2.196-0.651 1.051-1.834 1.759-3.076 1.786-7.022 0.001-14.044 0-21.066 0.001-0.766 0.024-1.542-0.189-2.181-0.615-1.043-0.671-1.728-1.875-1.738-3.119 0.001-5.126 0.001-10.253 0-15.38-0.029-0.889 0.269-1.785 0.83-2.477 0.655-0.836 1.674-1.376 2.735-1.439zM3.086 8.128c-0.001 5.082 0 10.164-0.001 15.245 0.001 0.169-0.006 0.339 0.008 0.508 0.112 1.039 0.99 1.914 2.017 2.069 0.294 0.027 0.591 0.016 0.886 0.017 5.918 0.001 11.837 0 17.755 0.001 1.024-0.012 2.049 0.024 3.071-0.020 0.942-0.152 1.756-0.903 1.962-1.838 0.076-0.279 0.057-0.571 0.059-0.858-0.001-5.001-0.001-10.002 0-15.003 0.002-1.066-0.809-2.065-1.85-2.289-0.304-0.082-0.621-0.058-0.931-0.061-6.835 0-13.67 0-20.505 0-0.162 0.002-0.328 0.001-0.487 0.043-1.055 0.16-1.951 1.109-1.986 2.186z"></path>
<path fill="#fff" d="M5.754 8.313c-0.029-0.421 0.316-0.825 0.746-0.827 0.206 0.039 0.413 0.112 0.539 0.29 2.321 2.783 4.638 5.568 6.957 8.351 0.453 0.531 1.127 0.862 1.822 0.908 0.712 0.050 1.438-0.205 1.964-0.688 0.201-0.179 0.354-0.402 0.532-0.602 2.113-2.548 4.233-5.091 6.349-7.637 0.154-0.183 0.303-0.392 0.534-0.483 0.16-0.067 0.338-0.043 0.505-0.022 0.203 0.116 0.354 0.299 0.446 0.513 0.019 0.204 0.041 0.436-0.111 0.598-2.345 2.823-4.694 5.642-7.038 8.465-0.601 0.683-1.473 1.080-2.364 1.205-0.401 0.038-0.806 0.042-1.206 0.001-1.114-0.17-2.131-0.803-2.836-1.673-2.152-2.594-4.309-5.184-6.465-7.774-0.148-0.19-0.362-0.366-0.372-0.625z"></path>
<path fill="#fff" d="M21.688 16.875c0.276-0.248 0.751-0.205 0.983 0.082 1.665 1.981 3.328 3.964 4.993 5.946 0.089 0.093 0.126 0.218 0.163 0.337-0.001 0.068-0.002 0.136-0.002 0.205-0.053 0.238-0.206 0.438-0.396 0.584-0.259 0.141-0.63 0.098-0.823-0.136-1.679-2.009-3.369-4.009-5.048-6.018-0.257-0.288-0.176-0.779 0.131-1z"></path>
<path fill="#fff" d="M9.21 17.076c0.211-0.245 0.592-0.384 0.891-0.22 0.223 0.114 0.341 0.348 0.412 0.577 0.014 0.177-0.020 0.366-0.139 0.504-1.626 1.936-3.248 3.875-4.871 5.813-0.176 0.227-0.479 0.324-0.758 0.281-0.478-0.059-0.761-0.725-0.441-1.097 1.634-1.954 3.271-3.905 4.906-5.857z"></path>
</svg>
