<!-- Generated by IcoMoon.io -->
<svg version="1.1" xmlns="http://www.w3.org/2000/svg" width="32" height="32" viewBox="0 0 32 32">
<title>mail-red</title>
<path fill="#ef6c69" d="M5.263 4.457c6.809-0.010 13.619-0.001 20.429-0.004 0.626 0.010 1.265-0.054 1.872 0.135 1.564 0.414 2.761 1.916 2.794 3.537 0.001 5.189 0 10.379 0.001 15.569-0.013 0.946-0.386 1.882-1.032 2.572-0.684 0.751-1.681 1.211-2.698 1.219-7.001-0.001-14.002 0-21.004 0-0.871 0.031-1.749-0.253-2.434-0.792-0.905-0.689-1.479-1.802-1.489-2.943 0-5.124 0-10.249 0-15.373-0.026-0.799 0.208-1.606 0.666-2.261 0.646-0.956 1.742-1.591 2.895-1.659zM5.274 5.908c-1.131 0.089-2.148 1.062-2.188 2.213-0.002 5.191 0 10.382-0.001 15.573 0.010 1.199 1.092 2.254 2.285 2.273 7.043 0.003 14.086 0.001 21.129 0.001 1.239 0.009 2.351-1.102 2.346-2.341-0.001-5.148 0.002-10.295-0.001-15.443-0.026-1.202-1.094-2.27-2.299-2.283-4.515-0.004-9.031-0.001-13.546-0.002-2.575 0.006-5.15-0.012-7.725 0.009z"></path>
<path fill="#ef6c69" d="M6.116 7.598c0.298-0.172 0.721-0.105 0.924 0.181 2.178 2.612 4.354 5.226 6.531 7.839 0.242 0.279 0.456 0.585 0.743 0.823 0.614 0.504 1.462 0.72 2.239 0.541 0.573-0.119 1.102-0.439 1.476-0.89 2.257-2.721 4.521-5.438 6.781-8.156 0.153-0.189 0.367-0.357 0.623-0.353 0.551-0.053 0.95 0.706 0.604 1.134-2.185 2.629-4.372 5.256-6.558 7.886-0.286 0.338-0.546 0.704-0.9 0.976-0.555 0.449-1.244 0.704-1.944 0.809-0.505 0.042-1.020 0.056-1.516-0.063-0.936-0.209-1.779-0.757-2.41-1.472-2.269-2.731-4.54-5.458-6.809-8.188-0.286-0.322-0.119-0.848 0.216-1.066z"></path>
<path fill="#ef6c69" d="M21.834 16.778c0.291-0.142 0.674-0.050 0.865 0.213 1.671 1.994 3.348 3.982 5.016 5.978 0.273 0.388 0.008 0.924-0.384 1.109-0.238 0.060-0.518 0.032-0.696-0.152-1.691-2.019-3.389-4.032-5.079-6.052-0.303-0.342-0.124-0.918 0.278-1.096z"></path>
<path fill="#ef6c69" d="M9.525 16.848c0.604-0.321 1.261 0.535 0.874 1.058-1.631 1.949-3.264 3.896-4.896 5.845-0.276 0.365-0.94 0.411-1.193-0.002-0.166-0.237-0.207-0.586-0.006-0.815 1.633-1.953 3.269-3.902 4.902-5.854 0.086-0.101 0.196-0.181 0.319-0.232z"></path>
</svg>
