<!-- Generated by IcoMoon.io -->
<svg version="1.1" xmlns="http://www.w3.org/2000/svg" width="32" height="32" viewBox="0 0 32 32">
<title>mail-black</title>
<path d="M5.261 4.457c7.080-0.011 14.161-0.001 21.241-0.005 0.775-0.016 1.554 0.219 2.191 0.662 1.023 0.691 1.681 1.901 1.668 3.139-0.001 5.144-0.001 10.289-0.001 15.433-0.011 0.963-0.396 1.917-1.063 2.613-0.683 0.731-1.666 1.178-2.669 1.186-7.064 0-14.127 0-21.191 0.001-0.81-0.009-1.614-0.295-2.251-0.796-0.902-0.689-1.473-1.798-1.484-2.936 0-5.189 0-10.377 0-15.567 0.009-0.84 0.318-1.671 0.851-2.319 0.654-0.819 1.66-1.348 2.708-1.411zM5.154 5.923c-1.084 0.139-2.028 1.091-2.067 2.198-0.002 5.189 0 10.379-0.001 15.569 0.009 1.026 0.801 1.962 1.788 2.205 0.346 0.099 0.708 0.069 1.063 0.073 6.854 0.001 13.708 0 20.562 0.001 1.063 0.002 2.047-0.806 2.284-1.836 0.089-0.328 0.060-0.671 0.064-1.006 0-4.96 0-9.919 0-14.879 0.001-1.036-0.766-2.009-1.767-2.267-0.33-0.103-0.679-0.078-1.020-0.081-6.831 0-13.663 0.001-20.495 0-0.137 0.001-0.274 0.004-0.409 0.024z"></path>
<path d="M6.224 7.547c0.286-0.116 0.633-0.015 0.817 0.231 2.319 2.782 4.636 5.566 6.955 8.348 0.465 0.545 1.163 0.881 1.878 0.911 0.81 0.043 1.631-0.315 2.148-0.941 2.261-2.724 4.526-5.444 6.789-8.165 0.154-0.188 0.368-0.356 0.623-0.351 0.551-0.051 0.949 0.708 0.602 1.135-2.346 2.824-4.696 5.645-7.043 8.469-0.901 1.016-2.359 1.386-3.671 1.18-1.15-0.194-2.168-0.902-2.869-1.819-2.107-2.537-4.218-5.073-6.327-7.609-0.146-0.188-0.357-0.361-0.372-0.616-0.022-0.318 0.168-0.657 0.469-0.775z"></path>
<path d="M21.836 16.777c0.294-0.142 0.677-0.046 0.869 0.219 1.661 1.982 3.327 3.959 4.986 5.942 0.304 0.384 0.045 0.958-0.366 1.141-0.249 0.064-0.547 0.024-0.718-0.186-1.681-2.008-3.369-4.011-5.051-6.019-0.304-0.344-0.125-0.92 0.279-1.098z"></path>
<path d="M9.625 16.811c0.604-0.205 1.153 0.651 0.749 1.126-1.626 1.938-3.25 3.878-4.874 5.817-0.174 0.221-0.471 0.317-0.745 0.277-0.486-0.052-0.771-0.727-0.447-1.102 1.631-1.949 3.264-3.896 4.896-5.844 0.109-0.132 0.26-0.224 0.422-0.274z"></path>
</svg>
