<!-- Generated by IcoMoon.io -->
<svg version="1.1" xmlns="http://www.w3.org/2000/svg" width="32" height="32" viewBox="0 0 32 32">
<title>phone-white</title>
<path fill="#fff" d="M6.276 2.083c0.344-0.377 1.001-0.404 1.366-0.045 2.523 2.5 5.028 5.018 7.541 7.529 0.367 0.363 0.366 1.002 0.001 1.366-0.842 0.844-1.681 1.69-2.53 2.527 1.959 1.966 3.926 3.926 5.895 5.883 0.832-0.851 1.682-1.684 2.521-2.529 0.358-0.37 1.010-0.373 1.364 0.003 2.497 2.504 5.008 4.995 7.496 7.508 0.379 0.349 0.382 1.011 0.016 1.371-0.684 0.693-1.377 1.378-2.063 2.067-0.499 0.495-0.981 1.019-1.577 1.402-1.657 1.126-3.867 1.364-5.733 0.641-0.85-0.324-1.631-0.835-2.259-1.492-4.9-4.891-9.793-9.791-14.689-14.686-1.008-1-1.663-2.354-1.804-3.768-0.211-1.831 0.438-3.739 1.734-5.051 0.902-0.914 1.814-1.817 2.722-2.725zM4.939 6.188c-0.771 0.792-1.216 1.893-1.202 2.999-0.009 1.004 0.359 2.003 1.007 2.769 0.184 0.228 0.399 0.427 0.605 0.636 4.84 4.847 9.701 9.675 14.536 14.527 0.667 0.612 1.526 1.019 2.428 1.115 1.1 0.139 2.247-0.174 3.126-0.851 0.301-0.221 0.546-0.503 0.813-0.761 0.534-0.539 1.078-1.069 1.606-1.614-0.352-0.334-0.688-0.684-1.033-1.024-1.68-1.708-3.384-3.393-5.074-5.091-0.64 0.646-1.285 1.287-1.928 1.929-0.189 0.185-0.351 0.394-0.513 0.602-0.358 0.412-1.066 0.421-1.434 0.017-2.449-2.448-4.898-4.898-7.347-7.346-0.282-0.266-0.332-0.709-0.202-1.061 0.124-0.326 0.454-0.475 0.688-0.707 0.699-0.69 1.385-1.394 2.088-2.079-2.035-2.037-4.089-4.056-6.111-6.105-0.689 0.676-1.366 1.365-2.051 2.045z"></path>
</svg>
