<!-- Generated by IcoMoon.io -->
<svg version="1.1" xmlns="http://www.w3.org/2000/svg" width="32" height="32" viewBox="0 0 32 32">
<title>phone-black</title>
<path d="M6.273 2.084c0.346-0.38 1.006-0.406 1.373-0.043 2.519 2.497 5.022 5.012 7.531 7.519 0.371 0.362 0.373 1.007 0.006 1.373-0.841 0.844-1.683 1.688-2.529 2.527 1.959 1.965 3.925 3.922 5.891 5.88 0.754-0.762 1.516-1.518 2.274-2.277 0.157-0.151 0.297-0.33 0.499-0.426 0.36-0.192 0.837-0.111 1.12 0.183 2.495 2.503 5.005 4.993 7.492 7.504 0.391 0.361 0.378 1.047-0.014 1.403-0.884 0.886-1.768 1.773-2.656 2.655-0.715 0.716-1.606 1.256-2.573 1.554-0.982 0.31-2.040 0.355-3.051 0.172-1.256-0.24-2.438-0.87-3.323-1.795-4.921-4.913-9.834-9.832-14.751-14.748-1.133-1.153-1.793-2.761-1.776-4.379-0.021-1.633 0.651-3.257 1.801-4.413 0.892-0.899 1.789-1.793 2.686-2.688zM4.969 6.158c-0.791 0.794-1.243 1.909-1.232 3.029-0.011 1.122 0.455 2.227 1.237 3.027 4.964 4.974 9.951 9.926 14.911 14.904 0.788 0.729 1.851 1.152 2.926 1.146 0.941 0.009 1.879-0.306 2.626-0.879 0.302-0.221 0.548-0.504 0.816-0.763 0.534-0.538 1.076-1.069 1.606-1.611-0.421-0.409-0.831-0.828-1.247-1.242-1.608-1.637-3.242-3.247-4.859-4.875-0.661 0.666-1.326 1.327-1.989 1.991-0.167 0.168-0.308 0.358-0.456 0.542-0.358 0.411-1.063 0.417-1.43 0.015-2.451-2.449-4.901-4.9-7.351-7.35-0.292-0.282-0.341-0.758-0.171-1.114 0.134-0.294 0.444-0.431 0.661-0.651 0.698-0.69 1.385-1.391 2.086-2.079-2.036-2.036-4.086-4.058-6.112-6.103-0.678 0.667-1.345 1.344-2.020 2.014z"></path>
</svg>
