<!-- Generated by IcoMoon.io -->
<svg version="1.1" xmlns="http://www.w3.org/2000/svg" width="32" height="32" viewBox="0 0 32 32">
<title>phone-red</title>
<path fill="#ef6c69" d="M6.275 2.083c0.336-0.369 0.969-0.404 1.341-0.069 2.513 2.485 5.003 4.994 7.506 7.49 0.446 0.376 0.443 1.117-0.001 1.494-0.824 0.818-1.638 1.646-2.467 2.46 1.957 1.968 3.926 3.925 5.894 5.883 0.824-0.839 1.663-1.663 2.49-2.497 0.353-0.394 1.029-0.416 1.395-0.029 2.507 2.515 5.028 5.015 7.526 7.538 0.363 0.366 0.338 1.027-0.041 1.372-0.884 0.887-1.77 1.774-2.658 2.658-0.8 0.801-1.82 1.379-2.919 1.651-0.863 0.216-1.771 0.234-2.646 0.085-1.276-0.232-2.48-0.866-3.378-1.804-4.912-4.902-9.816-9.814-14.724-14.72-0.885-0.891-1.488-2.054-1.711-3.289-0.166-0.973-0.124-1.987 0.166-2.933 0.293-0.991 0.841-1.901 1.571-2.632 0.885-0.887 1.771-1.773 2.658-2.658zM4.974 6.153c-0.9 0.897-1.358 2.214-1.214 3.476 0.087 0.969 0.538 1.889 1.213 2.586 4.901 4.911 9.824 9.799 14.721 14.713 0.996 1.067 2.558 1.551 3.984 1.254 0.856-0.172 1.657-0.611 2.258-1.245 0.639-0.644 1.288-1.279 1.921-1.927-0.392-0.375-0.769-0.765-1.154-1.146-1.639-1.668-3.305-3.311-4.954-4.97-0.495 0.501-0.996 0.996-1.492 1.495-0.299 0.303-0.617 0.59-0.869 0.934-0.343 0.534-1.192 0.55-1.578 0.056-2.428-2.428-4.855-4.856-7.282-7.283-0.391-0.376-0.356-1.093 0.072-1.428 0.214-0.16 0.42-0.332 0.604-0.527 0.634-0.63 1.258-1.268 1.898-1.891-2.035-2.037-4.088-4.056-6.111-6.105-0.678 0.664-1.343 1.341-2.017 2.010z"></path>
</svg>
