<!-- Generated by IcoMoon.io -->
<svg version="1.1" xmlns="http://www.w3.org/2000/svg" width="32" height="32" viewBox="0 0 32 32">
<title>plus-black</title>
<path d="M14.562 2.065c0.144-0.496 0.564-0.896 1.065-1.020 0.344-0.076 0.719-0.055 1.036 0.107 0.483 0.231 0.828 0.743 0.831 1.282 0.001 4.019 0.001 8.037 0 12.055 3.959 0.002 7.919 0 11.879 0.001 0.329 0 0.671 0.060 0.947 0.25 0.459 0.291 0.729 0.848 0.673 1.389-0.041 0.726-0.695 1.363-1.427 1.364-4.024 0.001-8.047-0.001-12.071 0.001-0.001 4.023 0.001 8.047-0.001 12.071-0.003 0.477-0.275 0.936-0.672 1.192-0.391 0.259-0.906 0.308-1.344 0.15-0.604-0.212-1.005-0.837-0.984-1.471-0.006-3.981 0.001-7.962-0.003-11.943-4.019 0-8.037 0.001-12.056 0-0.733-0.001-1.386-0.639-1.426-1.367-0.061-0.586 0.266-1.185 0.789-1.454 0.347-0.194 0.757-0.184 1.142-0.182 3.851 0.001 7.701 0.001 11.552 0-0.001-3.831 0-7.662 0-11.492 0.001-0.312-0.016-0.63 0.071-0.933z"></path>
</svg>
