<!-- Generated by IcoMoon.io -->
<svg version="1.1" xmlns="http://www.w3.org/2000/svg" width="32" height="32" viewBox="0 0 32 32">
<title>plus-white</title>
<path fill="#fff" d="M14.876 1.503c0.323-0.371 0.836-0.557 1.323-0.488 0.698 0.073 1.293 0.709 1.296 1.416 0.001 4.019 0 8.039 0.001 12.059 3.857 0.001 7.714 0 11.571 0.001 0.384-0.004 0.793-0.012 1.139 0.182 0.523 0.269 0.85 0.869 0.788 1.456-0.040 0.727-0.693 1.364-1.424 1.366-4.024 0.001-8.049-0.001-12.074 0.001-0.001 4.025 0 8.049-0.001 12.074-0.002 0.73-0.637 1.383-1.364 1.423-0.554 0.058-1.124-0.227-1.41-0.706-0.176-0.268-0.226-0.594-0.229-0.909-0.001-3.961 0.001-7.922-0.001-11.883-4.019-0.001-8.039 0-12.057-0.001-0.729-0.001-1.381-0.634-1.424-1.359-0.064-0.588 0.262-1.192 0.787-1.462 0.347-0.196 0.758-0.185 1.143-0.182 3.851-0.001 7.702 0 11.553-0.001-0.001-3.956-0.001-7.912-0.001-11.868-0.006-0.403 0.107-0.817 0.385-1.119z"></path>
</svg>
