<!-- Generated by IcoMoon.io -->
<svg version="1.1" xmlns="http://www.w3.org/2000/svg" width="32" height="32" viewBox="0 0 32 32">
<title>plus-red</title>
<path fill="#ef6c69" d="M14.793 1.607c0.313-0.435 0.872-0.668 1.402-0.593 0.702 0.071 1.298 0.712 1.299 1.421 0.001 4.018 0 8.036 0.001 12.055 3.959 0.002 7.919-0.001 11.879 0.001 0.36-0.002 0.732 0.078 1.022 0.303 0.433 0.314 0.666 0.871 0.59 1.4-0.072 0.702-0.712 1.3-1.422 1.3-4.023 0.001-8.046-0.001-12.069 0.001-0.001 4.024 0 8.049-0.001 12.073-0.001 0.732-0.639 1.386-1.367 1.425-0.554 0.057-1.123-0.229-1.408-0.707-0.174-0.267-0.226-0.592-0.229-0.906-0.001-3.962 0.001-7.924-0.001-11.886-4.019-0.001-8.039 0-12.058-0.001-0.506-0.004-0.989-0.309-1.234-0.747-0.229-0.393-0.258-0.894-0.087-1.314 0.224-0.582 0.836-0.959 1.453-0.94 3.976-0.006 7.952-0.001 11.928-0.003-0.001-3.956-0.001-7.911-0.001-11.867-0.002-0.358 0.078-0.729 0.302-1.016z"></path>
</svg>
