<?xml version="1.0" encoding="UTF-8" ?>
<!DOCTYPE svg PUBLIC "-//W3C//DTD SVG 1.1//EN" "http://www.w3.org/Graphics/SVG/1.1/DTD/svg11.dtd">
<svg width="176pt" height="176pt" viewBox="0 0 176 176" version="1.1" xmlns="http://www.w3.org/2000/svg">
<g id="#ed5854ff">
<path fill="#ed5854" opacity="1.00" d=" M 124.00 9.98 C 132.89 8.06 142.07 7.15 151.14 8.13 C 156.09 8.90 161.43 10.17 164.90 14.07 C 166.97 16.56 167.25 19.88 167.17 22.98 C 167.12 51.02 167.24 79.05 167.18 107.08 C 167.62 108.63 165.87 109.14 165.01 109.95 C 146.88 122.11 128.73 134.24 110.63 146.46 C 102.76 139.03 94.91 131.58 87.21 123.97 C 91.18 107.44 94.97 90.86 99.07 74.36 C 96.78 72.88 94.45 71.44 91.87 70.52 C 87.67 89.10 83.16 107.60 78.73 126.13 C 76.72 124.22 74.20 122.56 72.94 120.05 C 73.54 116.55 74.57 113.14 75.24 109.65 C 74.74 109.96 73.75 110.56 73.25 110.86 C 72.14 109.73 71.04 108.60 69.92 107.47 C 73.45 92.59 77.06 77.74 80.52 62.85 C 78.40 61.52 76.28 60.20 74.18 58.84 C 70.21 75.82 66.25 92.81 62.05 109.73 C 60.36 108.02 58.65 106.32 56.95 104.62 C 57.73 101.61 58.41 98.58 59.09 95.55 C 57.70 95.00 56.35 94.39 55.07 93.62 C 58.36 80.11 61.52 66.56 64.71 53.02 C 62.89 51.84 61.06 50.68 59.17 49.62 C 54.76 64.73 52.03 80.31 47.85 95.50 C 46.44 94.05 44.73 92.81 43.70 91.03 C 44.11 87.93 45.01 84.93 45.77 81.91 C 45.06 82.07 43.64 82.40 42.94 82.56 C 42.43 81.09 41.87 79.60 41.94 78.02 C 41.93 63.46 41.97 48.90 41.91 34.35 C 45.97 31.82 50.08 29.39 54.18 26.93 C 58.35 29.23 62.61 31.36 66.82 33.59 C 84.60 23.02 103.76 14.50 124.00 9.98 M 121.06 12.99 C 103.66 17.46 86.82 24.40 71.45 33.72 C 72.92 34.53 74.41 35.31 75.90 36.08 C 92.69 27.20 110.26 19.32 128.91 15.35 C 137.53 13.64 146.79 12.66 155.18 15.91 C 158.51 17.12 161.50 20.20 161.33 23.94 C 161.25 29.52 158.08 34.43 154.76 38.69 C 147.11 48.15 136.52 54.46 126.38 60.87 C 137.16 66.44 148.12 71.68 158.96 77.12 C 160.91 78.50 163.06 77.02 165.11 76.74 C 165.32 59.16 165.10 41.58 165.21 24.00 C 165.21 20.93 165.17 17.44 162.90 15.07 C 159.70 12.07 155.22 11.10 151.03 10.39 C 140.98 9.33 130.83 10.55 121.06 12.99 M 119.07 27.58 C 120.71 32.62 126.17 29.50 129.85 29.54 C 134.06 30.72 134.57 36.76 139.14 37.51 C 143.02 37.96 146.86 36.52 150.77 36.65 C 149.64 31.93 144.19 34.41 140.95 34.71 C 136.13 34.43 135.84 27.60 131.16 26.72 C 127.12 26.32 123.16 27.92 119.07 27.58 M 98.21 28.62 C 99.52 33.82 105.35 30.58 108.96 30.59 C 112.80 31.73 113.26 36.70 116.85 38.23 C 119.97 39.53 123.28 38.25 126.39 37.61 C 129.90 39.06 130.84 43.19 133.93 45.11 C 137.85 47.35 142.28 44.42 146.49 45.39 C 146.63 44.74 146.93 43.46 147.08 42.81 C 143.75 41.69 140.38 42.72 137.04 43.03 C 132.76 42.45 132.55 36.54 128.51 35.46 C 125.42 34.31 122.25 35.93 119.12 35.81 C 115.51 35.02 115.06 30.48 112.06 28.80 C 107.80 26.12 102.85 29.55 98.21 28.62 M 47.59 33.45 C 48.08 34.55 48.36 35.88 49.60 36.38 C 86.88 58.46 124.18 80.51 161.46 102.60 C 162.66 103.30 163.93 103.89 165.20 104.48 C 165.33 98.91 165.28 93.35 165.27 87.78 C 128.24 68.33 91.23 48.84 54.17 29.44 C 51.97 30.76 49.77 32.09 47.59 33.45 M 95.05 36.80 C 95.26 37.40 95.69 38.58 95.90 39.17 C 99.54 41.14 103.65 37.87 107.34 39.62 C 109.94 42.39 111.41 46.94 115.88 47.13 C 119.19 46.68 122.48 46.13 125.84 46.23 C 125.79 45.64 125.68 44.45 125.62 43.85 C 122.40 42.65 119.10 43.98 115.86 44.27 C 111.82 43.28 111.45 37.92 107.59 36.63 C 103.51 35.25 99.26 37.58 95.05 36.80 Z" />
<path fill="#ed5854" opacity="1.00" d=" M 33.01 85.58 C 55.32 108.24 77.57 130.96 99.65 153.84 C 94.24 157.24 89.17 161.23 83.59 164.34 C 72.86 164.69 62.07 164.48 51.33 164.45 C 49.90 163.26 49.05 161.54 47.99 160.04 C 35.51 141.37 22.89 122.80 10.55 104.05 C 18.00 100.65 25.55 97.47 32.96 93.99 C 32.96 91.19 32.97 88.38 33.01 85.58 M 33.20 96.47 C 35.65 99.28 38.15 102.05 40.69 104.79 C 39.77 110.10 38.46 115.35 37.84 120.72 C 39.92 120.24 42.00 119.75 44.09 119.29 C 45.35 113.71 44.61 107.96 44.83 102.30 C 42.25 99.46 39.59 96.71 36.90 93.98 C 35.66 94.80 34.42 95.62 33.20 96.47 M 34.72 103.45 C 33.76 106.77 32.91 110.12 32.07 113.47 C 33.10 114.81 34.13 116.13 35.19 117.45 C 36.01 113.61 37.18 109.80 37.48 105.86 C 37.43 104.46 35.56 104.29 34.72 103.45 M 46.15 110.68 C 48.75 113.89 51.84 116.68 54.26 120.02 C 53.66 126.12 51.92 132.04 51.02 138.10 C 53.52 137.31 56.01 136.47 58.49 135.59 C 59.19 129.46 58.77 123.28 58.87 117.12 C 56.05 114.03 53.14 111.03 50.22 108.03 C 48.87 108.92 47.51 109.79 46.15 110.68 M 47.73 117.42 C 46.51 121.54 45.45 125.72 44.46 129.91 C 45.77 131.48 47.08 133.07 48.47 134.57 C 49.73 130.07 50.52 125.46 51.45 120.88 C 50.23 119.70 49.01 118.53 47.73 117.42 M 60.60 126.62 C 63.68 130.10 66.84 133.50 69.89 137.00 C 68.54 143.76 67.39 150.56 66.02 157.31 C 68.97 156.32 71.84 155.09 74.72 153.89 C 74.63 147.16 75.10 140.37 74.50 133.67 C 71.57 130.15 68.17 127.05 65.08 123.68 C 63.58 124.65 62.08 125.62 60.60 126.62 M 62.09 133.43 C 60.75 138.29 59.74 143.23 58.53 148.12 C 60.06 150.07 61.60 152.02 63.48 153.65 C 64.83 148.42 65.66 143.08 66.73 137.80 C 65.26 136.26 63.76 134.74 62.09 133.43 Z" />
</g>
</svg>
