<?xml version="1.0" encoding="UTF-8" ?>
<!DOCTYPE svg PUBLIC "-//W3C//DTD SVG 1.1//EN" "http://www.w3.org/Graphics/SVG/1.1/DTD/svg11.dtd">
<svg width="176pt" height="176pt" viewBox="0 0 176 176" version="1.1" xmlns="http://www.w3.org/2000/svg">
<g id="#000000ff">
<path fill="#000000" opacity="1.00" d=" M 116.77 11.78 C 127.90 8.69 139.57 6.87 151.12 8.14 C 156.06 8.87 161.42 10.16 164.87 14.06 C 167.46 17.07 167.15 21.26 167.19 24.98 C 167.06 52.86 167.34 80.75 167.11 108.64 C 148.20 121.10 129.45 133.82 110.65 146.45 C 102.75 139.04 94.90 131.58 87.20 123.95 C 91.17 107.39 95.03 90.81 99.05 74.26 C 96.74 72.86 94.38 71.52 91.88 70.50 C 87.67 89.07 83.16 107.58 78.75 126.11 C 76.63 124.28 74.61 122.35 72.70 120.30 C 73.67 116.79 74.50 113.25 75.23 109.68 C 74.73 109.98 73.74 110.56 73.25 110.86 C 72.14 109.74 71.04 108.62 69.94 107.50 C 73.41 92.61 77.07 77.75 80.52 62.85 C 78.40 61.52 76.29 60.20 74.18 58.85 C 70.19 75.81 66.28 92.80 62.05 109.71 C 60.35 108.01 58.65 106.32 56.95 104.62 C 57.70 101.63 58.40 98.62 59.08 95.60 C 57.71 94.95 56.35 94.27 55.03 93.54 C 58.45 80.08 61.47 66.52 64.72 53.02 C 62.88 51.85 61.02 50.69 59.14 49.59 C 54.81 64.76 52.00 80.33 47.85 95.55 C 46.42 94.10 44.80 92.79 43.74 91.03 C 44.07 87.94 45.00 84.95 45.77 81.94 C 45.05 82.11 43.61 82.44 42.89 82.60 C 41.17 77.59 42.19 72.22 41.95 67.04 C 42.14 56.13 41.52 45.17 42.24 34.30 C 46.00 31.51 50.23 29.43 54.19 26.93 C 58.37 29.22 62.62 31.39 66.85 33.59 C 82.49 24.28 99.18 16.57 116.77 11.78 M 120.24 13.20 C 103.14 17.72 86.53 24.52 71.44 33.77 C 72.92 34.54 74.42 35.30 75.92 36.06 C 92.47 27.32 109.78 19.55 128.13 15.51 C 136.98 13.70 146.53 12.55 155.17 15.91 C 158.52 17.12 161.50 20.20 161.33 23.96 C 161.22 29.78 157.84 34.86 154.31 39.24 C 146.70 48.43 136.31 54.56 126.39 60.90 C 137.91 66.66 149.37 72.56 161.07 77.97 C 162.40 77.49 163.74 77.03 165.10 76.60 C 165.33 59.09 165.09 41.57 165.22 24.05 C 165.17 20.98 165.20 17.46 162.91 15.10 C 159.95 12.27 155.79 11.25 151.88 10.52 C 141.29 9.17 130.54 10.58 120.24 13.20 M 119.01 27.65 C 121.01 32.78 126.61 29.06 130.46 29.70 C 134.04 31.45 134.86 36.64 139.07 37.49 C 142.98 37.86 146.86 36.71 150.77 36.64 C 149.41 31.66 143.67 34.86 140.18 34.67 C 136.05 33.46 135.52 27.60 131.09 26.72 C 127.05 26.45 123.06 27.66 119.01 27.65 M 98.18 28.70 C 99.64 33.71 105.35 30.57 108.95 30.63 C 112.78 31.77 113.34 36.74 116.94 38.25 C 120.44 39.76 124.19 37.25 127.71 38.35 C 130.82 40.46 131.84 45.30 136.05 45.91 C 139.50 46.06 142.92 45.05 146.39 45.34 C 146.58 44.69 146.95 43.40 147.14 42.76 C 143.45 41.71 139.72 43.12 136.03 42.81 C 132.72 41.28 132.12 36.59 128.49 35.45 C 124.99 34.14 121.23 36.66 117.80 35.35 C 114.80 32.91 113.55 28.02 109.07 27.69 C 105.44 28.05 101.84 28.72 98.18 28.70 M 47.52 33.43 C 48.13 34.75 48.81 36.11 50.20 36.76 C 84.36 56.92 118.46 77.17 152.61 97.34 C 156.77 99.78 160.81 102.44 165.19 104.47 C 165.33 98.91 165.28 93.34 165.26 87.78 C 128.24 68.33 91.23 48.83 54.17 29.45 C 51.95 30.77 49.74 32.10 47.52 33.43 M 95.02 36.88 C 96.50 43.51 105.03 36.14 108.25 40.67 C 110.22 43.35 112.03 47.04 115.90 47.04 C 119.22 46.73 122.53 46.14 125.88 46.33 C 125.78 45.76 125.56 44.62 125.46 44.05 C 122.43 42.46 119.05 44.13 115.88 44.19 C 111.61 43.21 111.20 37.15 106.73 36.35 C 102.85 35.86 98.95 37.18 95.02 36.88 Z" />
<path fill="#000000" opacity="1.00" d=" M 33.01 85.58 C 55.32 108.23 77.57 130.96 99.65 153.84 C 94.87 156.96 90.19 160.24 85.42 163.37 C 83.58 164.81 81.15 164.49 78.97 164.55 C 69.99 164.41 61.00 164.61 52.02 164.48 C 50.80 164.61 50.32 163.21 49.63 162.49 C 36.61 143.00 23.43 123.62 10.55 104.05 C 17.99 100.64 25.55 97.47 32.96 93.99 C 32.96 91.19 32.97 88.38 33.01 85.58 M 33.19 96.48 C 35.66 99.28 38.16 102.05 40.69 104.80 C 39.73 110.09 38.51 115.35 37.83 120.69 C 39.92 120.23 42.00 119.76 44.10 119.31 C 45.24 113.69 44.71 107.94 44.81 102.26 C 42.22 99.45 39.58 96.71 36.91 93.98 C 35.67 94.81 34.43 95.64 33.19 96.48 M 34.68 103.47 C 33.76 106.83 32.89 110.20 32.07 113.58 C 33.11 114.84 34.16 116.10 35.23 117.35 C 36.03 113.54 37.21 109.78 37.45 105.88 C 37.31 104.51 35.56 104.28 34.68 103.47 M 46.15 110.68 C 48.86 113.81 51.64 116.87 54.43 119.93 C 53.44 126.01 52.07 132.02 51.02 138.08 C 53.50 137.30 55.98 136.48 58.45 135.67 C 59.17 129.51 58.79 123.30 58.87 117.12 C 56.05 114.04 53.14 111.03 50.23 108.04 C 48.87 108.92 47.51 109.79 46.15 110.68 M 47.67 117.48 C 46.52 121.61 45.45 125.77 44.43 129.95 C 45.79 131.49 47.14 133.04 48.55 134.54 C 49.68 130.02 50.53 125.44 51.47 120.88 C 50.23 119.72 48.97 118.58 47.67 117.48 M 60.61 126.53 C 63.63 130.08 66.81 133.49 69.89 136.99 C 68.56 143.75 67.37 150.55 66.03 157.31 C 68.98 156.28 71.86 155.09 74.73 153.88 C 74.64 147.26 75.03 140.63 74.57 134.03 C 71.94 130.17 68.18 127.20 65.08 123.71 C 63.59 124.65 62.09 125.59 60.61 126.53 M 62.08 133.42 C 60.77 138.30 59.74 143.24 58.51 148.14 C 60.06 150.08 61.67 151.99 63.52 153.65 C 64.79 148.39 65.68 143.05 66.74 137.75 C 65.23 136.27 63.70 134.79 62.08 133.42 Z" />
</g>
</svg>
