<?xml version="1.0" encoding="UTF-8" ?>
<!DOCTYPE svg PUBLIC "-//W3C//DTD SVG 1.1//EN" "http://www.w3.org/Graphics/SVG/1.1/DTD/svg11.dtd">
<svg width="176pt" height="176pt" viewBox="0 0 176 176" version="1.1" xmlns="http://www.w3.org/2000/svg">
<g id="#ffffffff">
<path fill="#ffffff" opacity="1.00" d=" M 116.63 11.82 C 127.79 8.69 139.47 6.92 151.05 8.10 C 156.03 8.90 161.41 10.15 164.92 14.07 C 166.97 16.59 167.28 19.90 167.17 23.03 C 167.09 51.45 167.32 79.88 167.12 108.30 C 148.55 121.32 129.39 133.59 110.68 146.46 C 102.75 139.04 94.85 131.58 87.18 123.88 C 91.27 107.45 94.87 90.89 99.09 74.49 C 96.78 73.04 94.60 70.98 91.73 70.85 C 87.77 89.32 82.96 107.60 78.88 126.04 C 76.64 124.46 74.73 122.48 72.81 120.53 C 73.53 116.91 74.54 113.36 75.18 109.73 C 74.71 110.01 73.77 110.59 73.31 110.87 C 72.18 109.76 71.06 108.64 69.92 107.53 C 73.42 92.63 77.06 77.76 80.52 62.85 C 78.40 61.51 76.26 60.19 74.14 58.85 C 70.22 75.82 66.31 92.81 62.01 109.69 C 60.32 107.98 58.63 106.29 56.93 104.60 C 57.82 101.37 58.55 98.11 59.16 94.82 C 58.68 95.00 57.72 95.35 57.24 95.53 C 56.72 94.94 55.67 93.75 55.14 93.15 C 58.51 79.89 61.39 66.52 64.74 53.26 C 63.05 51.87 61.20 50.68 59.25 49.69 C 57.43 53.56 57.11 57.89 55.96 61.96 C 53.08 73.09 51.01 84.44 47.78 95.46 C 46.32 94.03 44.83 92.62 43.52 91.03 C 44.28 88.04 44.91 85.01 45.79 82.05 C 43.99 82.93 42.01 81.95 41.98 79.86 C 41.85 64.73 42.05 49.59 41.87 34.46 C 45.88 31.84 49.98 29.36 54.15 27.02 C 58.41 29.11 62.58 31.40 66.79 33.59 C 82.43 24.35 99.06 16.59 116.63 11.82 M 78.63 29.54 C 76.21 30.87 73.57 31.92 71.60 33.91 C 73.05 34.65 74.51 35.36 75.97 36.06 C 93.51 26.77 111.96 18.52 131.57 14.85 C 139.39 13.49 147.72 12.97 155.24 15.94 C 158.56 17.15 161.53 20.26 161.33 23.99 C 161.25 29.53 158.10 34.39 154.81 38.62 C 149.07 45.69 141.64 51.15 134.03 56.05 C 131.58 57.75 128.64 58.82 126.59 61.04 C 137.33 66.45 148.14 71.71 158.89 77.10 C 159.99 77.42 161.83 79.00 162.40 77.01 C 163.06 77.01 164.38 77.00 165.04 76.99 C 165.40 59.35 165.06 41.69 165.20 24.05 C 165.25 20.95 165.16 17.44 162.88 15.05 C 155.73 9.15 145.71 9.97 137.03 10.22 C 116.46 12.42 96.88 20.09 78.63 29.54 M 119.45 27.35 C 119.64 27.97 120.01 29.21 120.20 29.82 C 123.29 31.65 126.58 29.36 129.77 29.53 C 133.66 30.26 133.97 35.20 137.32 36.78 C 141.43 39.16 145.98 35.84 150.35 36.92 C 150.32 36.37 150.25 35.27 150.21 34.72 C 146.96 32.39 143.35 35.12 139.89 34.62 C 136.40 33.69 136.17 29.37 133.25 27.73 C 129.01 24.83 124.08 28.56 119.45 27.35 M 100.01 28.47 C 97.36 27.60 98.77 32.00 100.62 31.44 C 103.46 32.21 106.12 30.41 108.93 30.60 C 112.79 31.71 113.31 36.47 116.67 38.36 C 119.48 39.03 122.39 38.82 125.07 37.73 C 130.23 37.57 130.43 44.06 134.73 45.48 C 138.55 47.18 142.58 44.30 146.60 45.36 C 147.36 43.58 146.84 42.57 145.03 42.34 C 141.76 41.36 138.41 44.24 135.27 42.48 C 132.52 40.62 132.01 36.38 128.49 35.47 C 124.52 33.82 120.08 37.53 116.45 34.55 C 114.77 30.32 110.82 26.49 105.89 27.80 C 104.08 28.89 102.00 28.63 100.01 28.47 M 47.88 33.15 C 47.97 34.39 48.05 35.88 49.46 36.32 C 87.18 58.61 124.89 80.92 162.57 103.27 C 163.23 103.52 164.55 104.02 165.21 104.28 C 165.32 98.78 165.29 93.27 165.26 87.77 C 129.68 69.07 94.09 50.39 58.51 31.68 C 57.04 30.96 55.67 29.95 54.05 29.60 C 51.93 30.68 49.97 32.03 47.88 33.15 M 95.42 36.63 C 95.46 37.26 95.54 38.51 95.57 39.13 C 98.58 40.70 101.78 39.18 104.89 38.95 C 109.56 38.94 109.43 45.15 113.41 46.39 C 117.23 48.37 121.27 45.23 125.27 46.47 L 125.94 45.25 L 125.47 43.84 C 122.26 42.48 119.01 44.19 115.78 44.26 C 111.82 43.39 111.66 38.32 108.12 36.87 C 104.05 34.78 99.68 37.96 95.42 36.63 Z" />
<path fill="#ffffff" opacity="1.00" d=" M 33.01 85.66 C 40.76 93.01 47.99 100.89 55.47 108.51 C 70.23 123.58 85.05 138.58 99.64 153.81 C 94.68 157.19 89.68 160.49 84.71 163.86 C 83.66 164.69 82.25 164.46 81.01 164.53 C 71.40 164.50 61.79 164.48 52.18 164.54 C 50.86 164.78 50.29 163.32 49.62 162.50 C 36.63 143.00 23.42 123.63 10.55 104.05 C 18.00 100.63 25.58 97.49 32.98 93.96 C 32.96 91.20 32.95 88.43 33.01 85.66 M 33.24 96.16 C 35.40 99.30 38.16 101.96 40.69 104.79 C 39.81 110.11 38.39 115.33 37.89 120.70 C 39.92 120.25 41.95 119.75 43.99 119.32 C 45.47 113.83 44.64 108.05 44.75 102.44 C 42.49 99.36 39.56 96.86 36.98 94.05 C 35.74 94.76 34.49 95.46 33.24 96.16 M 34.55 103.74 C 33.76 106.99 32.89 110.23 32.06 113.48 C 33.08 114.79 34.11 116.09 35.22 117.33 C 36.02 113.56 37.12 109.83 37.50 106.00 C 37.71 104.36 35.58 104.28 34.55 103.74 M 46.19 110.58 C 48.64 113.97 51.94 116.66 54.30 120.10 C 53.60 126.16 51.91 132.06 51.05 138.10 C 53.49 137.31 55.93 136.50 58.36 135.67 C 59.37 129.56 58.66 123.34 58.89 117.18 C 56.12 114.04 53.14 111.10 50.28 108.05 C 48.92 108.90 47.55 109.73 46.19 110.58 M 47.55 117.69 C 46.54 121.76 45.41 125.79 44.48 129.88 C 45.81 131.41 46.85 133.28 48.66 134.33 C 49.69 129.92 50.50 125.46 51.44 121.03 C 50.32 119.72 49.26 118.26 47.55 117.69 M 60.67 126.44 C 63.45 130.20 66.92 133.39 69.89 137.01 C 68.53 143.74 67.43 150.52 66.01 157.24 C 69.01 156.40 71.85 155.07 74.71 153.87 C 74.83 148.20 74.71 142.53 74.78 136.86 C 74.62 135.57 75.11 133.96 74.00 132.99 C 71.03 129.96 68.24 126.75 65.11 123.89 C 63.53 124.54 62.14 125.57 60.67 126.44 M 61.96 133.68 C 60.78 138.47 59.69 143.29 58.57 148.09 C 60.21 149.88 61.21 152.57 63.74 153.29 C 64.69 148.13 65.78 142.99 66.70 137.83 C 65.21 136.35 64.01 134.45 61.96 133.68 Z" />
</g>
</svg>
